<?xml version="1.0" encoding="UTF-8" standalone="no"?><!DOCTYPE svg PUBLIC "-//W3C//DTD SVG 1.1//EN" "http://www.w3.org/Graphics/SVG/1.1/DTD/svg11.dtd"><svg width="100%" height="100%" viewBox="0 0 97 20" version="1.1" xmlns="http://www.w3.org/2000/svg" xmlns:xlink="http://www.w3.org/1999/xlink" xml:space="preserve" xmlns:serif="http://www.serif.com/" style="fill-rule:evenodd;clip-rule:evenodd;stroke-linejoin:round;stroke-miterlimit:1.41421;"><g><path d="M86.851,4.747c1.212,0.057 2.814,0.877 2.814,0.877c0.069,-0.059 0.141,-0.116 0.213,-0.172c0.875,-0.668 2.226,-0.909 2.226,-0.909c2.062,0.024 3.812,2.169 2.808,4.218l0.762,0.347c1.125,0.755 0.931,0.507 0.69,1.996c-0.465,2.871 -2.672,5.882 -5.461,5.715c-1.358,-0.082 -2.745,-1.799 -2.745,-1.799c-0.275,0.507 0.258,2.056 -2.61,1.862c-1.219,-0.082 -2.245,-0.887 -2.758,-2.203c0,0 -3.941,3.214 -6.578,1.228c0,0 -0.75,1.114 -2.225,0.671c-3.628,-1.049 -9.64,2.301 -8.599,-2.839c0.306,-1.512 1.457,-2.847 2.488,-4.168c0,0 -2.156,-2.516 -0.604,-4.209c1.94,-2.117 8.326,-1.891 9.702,0.292c2,-1.755 5.356,-1.68 6.851,0.531c0,0 1.187,-1.492 3.026,-1.438Zm-17.889,8.463c-0.448,0.709 0.131,-0.203 0,0Zm9.701,-5.015c-1.099,1.247 -1.568,4.585 -1.035,2.545c0.306,-1.112 1.133,-2.652 1.035,-2.545Zm13.496,-0.645c-1.545,0.657 -0.817,1.502 -0.925,2.167c0.386,-0.994 1.012,-2.202 0.925,-2.167Zm-18.742,0.007c0,0 -0.486,0.753 -1.258,1.595c2.348,-2.161 1.605,-1.595 1.605,-1.595c-0.115,0 -0.231,0 -0.347,0Zm13.081,0.194c-0.74,0.072 -0.795,1.646 -0.143,0.309c0,0 0.203,-0.313 0.143,-0.309Z" style="fill:#fff;fill-rule:nonzero;"/><path d="M21.87,0.93c2.024,0.092 4.27,1.113 3.073,3.194c-0.278,0.505 -1.366,1.272 0.206,0.86c1.362,-0.356 3.095,0.558 3.505,0.357c1.363,-0.62 3.041,-0.378 4.316,0.381c0.878,-0.602 1.019,-0.459 1.466,-0.507c1.384,-0.148 3.121,0.814 3.493,0.58c1.385,-0.837 3.201,-0.704 4.507,0.288c2.229,-1.903 6.962,-0.313 5.281,3.118l0.761,0.344c0.312,0.209 1.757,-0.83 0.418,3.068c-1.232,3.591 -6.021,6.555 -7.918,2.857c0,0 0.538,-0.478 -0.736,1.141c-0.917,1.167 -3.149,0.874 -4.059,-0.604c0,0 -2.527,2.745 -4.538,0.175c0,0 -2.977,2.011 -4.922,0.119c0,0 -3.801,1.213 -5.345,-1.367c0.063,1.216 0.676,0.67 0.586,1.96c-0.169,2.426 -5.478,1.786 -5.898,-2.44c-0.435,-5.007 -1.168,5.585 -7.512,4.787c-1.58,-0.199 -3.256,-1.73 -2.533,-3.215c0.39,-0.802 1.846,-0.757 1.846,-0.757c1.28,-0.866 2.007,-2.538 2.729,-4.086c0,0 -0.67,-2.56 1.33,-3.59c0.397,-1.445 0.84,-3.291 0.154,-3.11c-3.557,1.01 -6.026,5.198 -5.204,8.82c0,0 0.081,2.851 -3.406,1.572c-1.94,-0.711 -3.405,-2.696 -3.47,-4.746c0,0 0.537,-3.052 2.011,-4.748c2.419,-2.784 6.059,-4.38 9.765,-4.701c0.553,-0.048 5.295,0.031 6.031,4.046c0,0 0.432,-3.898 4.063,-3.796Zm-3.113,10.677c-0.173,0.14 -0.371,1.748 0.073,0.011c0,0 0.162,-0.248 -0.073,-0.011Zm6.078,-2.98c-1.081,1.237 -1.558,4.538 -0.997,2.477c0.314,-1.106 1.112,-2.605 0.997,-2.477Zm-19.482,-2.321c-1.583,1.316 -3.218,3.53 -1.631,5.204c0.071,-1.809 0.705,-3.602 1.656,-5.196c0,0 0.113,-0.12 -0.025,-0.008Zm24.734,1.722c-0.669,0.091 0.176,0.487 -0.879,1.158c-0.042,3.272 0.034,0.686 0.844,-1.049c0,0 0.086,-0.115 0.035,-0.109Zm14.868,-0.033c-0.854,0.349 -1.052,1.251 -1.052,1.251c0.28,0.637 -0.085,1.438 0.4,0.247c0.181,-0.436 0.37,-0.867 0.569,-1.295c0.039,-0.084 0.115,-0.215 0.083,-0.203Zm-6.035,0.839c-0.347,0.37 -0.472,1.018 0.025,-0.025c-0.009,0.009 -0.017,0.017 -0.025,0.025Zm-4.119,-0.64c-0.618,0.06 -0.402,0.839 -0.402,0.839c0.178,-0.378 0.461,-0.843 0.402,-0.839Zm-13.146,-4.267c-1.437,0.052 -1.333,2.546 -2.002,5.037c0,0 0.941,-2.637 1.975,-4.902c0,0 0.111,-0.136 0.027,-0.135Z" style="fill:#fff;fill-rule:nonzero;"/><g><path d="M67.782,8.236l0.764,-0.979c0.431,-0.551 0.607,-1.263 0.482,-1.952c-0.124,-0.687 -0.537,-1.292 -1.133,-1.657l-2.593,-1.592c-0.593,-0.364 -1.316,-0.46 -1.981,-0.263c-0.081,0.024 -0.161,0.052 -0.239,0.084c-1.207,-0.797 -2.556,-1.328 -3.945,-1.548c-1.391,-0.22 -2.838,-0.131 -4.231,0.254c-0.064,-0.054 -0.131,-0.105 -0.2,-0.153c-0.574,-0.393 -1.291,-0.525 -1.966,-0.361l-2.958,0.713c-0.681,0.163 -1.26,0.611 -1.589,1.225c-0.333,0.618 -0.385,1.35 -0.146,2.004l0.425,1.169c0.017,0.046 0.034,0.092 0.053,0.137c-0.744,1.163 -1.238,2.435 -1.44,3.716c-0.409,2.583 0.35,4.96 2.195,6.871c1.645,1.706 4.084,2.887 6.866,3.328c2.782,0.44 5.466,0.069 7.558,-1.046c2.345,-1.248 3.8,-3.274 4.209,-5.858c0.202,-1.28 0.125,-2.642 -0.223,-3.978c0.032,-0.037 0.062,-0.075 0.092,-0.114" style="fill:#fff;fill-rule:nonzero;"/><g><clipPath id="_clip1"><path d="M46.678,16.753l19.239,3.044l2.688,-16.989l-19.239,-3.044l-2.688,16.989Z" clip-rule="nonzero"/></clipPath><g clip-path="url(#_clip1)"><path d="M56.997,11.243c0.042,-0.26 -0.056,-0.491 -0.217,-0.516c-0.162,-0.026 -0.326,0.164 -0.368,0.423c-0.041,0.26 0.057,0.492 0.219,0.518c0.161,0.025 0.325,-0.165 0.366,-0.425m1.39,0.22c0.041,-0.26 -0.057,-0.491 -0.219,-0.517c-0.161,-0.025 -0.325,0.164 -0.366,0.424c-0.041,0.26 0.056,0.492 0.217,0.518c0.162,0.025 0.327,-0.165 0.368,-0.425m0.789,0.19c-0.08,0.502 -0.435,0.725 -2.08,0.465c-1.232,-0.195 -1.598,-0.362 -1.492,-1.031c0.129,-0.817 1.035,-1.355 2.02,-1.199c0.985,0.156 1.681,0.947 1.552,1.765" style="fill:#e97776;fill-rule:nonzero;"/><path d="M54.362,9.686c0.115,-0.727 -0.174,-1.377 -0.646,-1.452c-0.471,-0.074 -0.947,0.455 -1.062,1.182c-0.115,0.726 0.174,1.376 0.645,1.451c0.472,0.075 0.948,-0.455 1.063,-1.181m5.273,2.039c0.169,-1.07 -0.7,-2.1 -1.938,-2.296c-1.238,-0.196 -2.383,0.516 -2.553,1.586c-0.195,1.234 0.907,1.408 1.88,1.562c0.962,0.152 2.416,0.382 2.611,-0.852m2.862,-0.752c0.115,-0.727 -0.174,-1.377 -0.645,-1.452c-0.472,-0.074 -0.947,0.455 -1.062,1.182c-0.115,0.726 0.173,1.376 0.646,1.451c0.471,0.075 0.946,-0.454 1.061,-1.181m3.511,-2.653c0.402,1.268 0.513,2.566 0.322,3.776c-0.646,4.082 -4.73,6.359 -9.931,5.536c-5.201,-0.823 -8.383,-4.249 -7.737,-8.331c0.191,-1.21 0.698,-2.41 1.472,-3.493c0.007,0.007 0.015,0.013 0.022,0.019c0.028,0.025 0.058,0.05 0.088,0.074c0.012,0.01 0.024,0.02 0.036,0.029c0.034,0.026 0.068,0.051 0.101,0.076l0.021,0.014c0.041,0.029 0.083,0.057 0.125,0.083c0.01,0.006 0.021,0.012 0.031,0.018c0.034,0.021 0.068,0.04 0.102,0.058c0.013,0.007 0.025,0.014 0.037,0.021c0.04,0.021 0.08,0.04 0.122,0.059c0.004,0.003 0.008,0.004 0.013,0.007c0.045,0.02 0.091,0.04 0.138,0.059c0.011,0.003 0.022,0.008 0.034,0.012c0.036,0.014 0.073,0.026 0.11,0.039c0.013,0.004 0.025,0.008 0.039,0.012c0.046,0.014 0.092,0.028 0.139,0.04l0.004,0.001c0.048,0.012 0.097,0.023 0.147,0.032c0.012,0.003 0.025,0.005 0.039,0.008c0.019,0.004 0.038,0.008 0.057,0.011c0.017,0.002 0.035,0.004 0.051,0.006c0.017,0.002 0.034,0.005 0.051,0.007c0.038,0.004 0.075,0.008 0.113,0.011c0.014,0.001 0.027,0.003 0.04,0.003c0.051,0.003 0.103,0.006 0.154,0.005c0.009,0.001 0.018,0 0.028,0c0.041,0 0.084,-0.001 0.126,-0.003c0.018,-0.001 0.035,-0.002 0.053,-0.004c0.034,-0.002 0.069,-0.005 0.104,-0.009c0.018,-0.001 0.037,-0.003 0.055,-0.006c0.036,-0.004 0.072,-0.009 0.107,-0.015c0.017,-0.003 0.033,-0.005 0.05,-0.008c0.052,-0.01 0.103,-0.02 0.154,-0.033c1.091,-0.262 1.907,-1.147 2.082,-2.254c0.041,-0.255 0.044,-0.516 0.012,-0.776l-0.127,-1.02c1.397,-0.522 2.875,-0.679 4.291,-0.455c1.416,0.224 2.774,0.83 3.941,1.758l-0.435,0.93c-0.111,0.238 -0.188,0.487 -0.229,0.743c-0.175,1.106 0.329,2.2 1.285,2.786c0.045,0.028 0.09,0.054 0.137,0.079c0.015,0.008 0.03,0.015 0.044,0.023c0.032,0.016 0.064,0.033 0.097,0.047c0.017,0.009 0.035,0.016 0.051,0.023c0.032,0.015 0.064,0.028 0.097,0.041c0.015,0.007 0.032,0.014 0.049,0.02c0.038,0.015 0.077,0.028 0.115,0.041c0.01,0.002 0.021,0.007 0.03,0.01c0.049,0.016 0.098,0.029 0.146,0.041c0.016,0.005 0.032,0.008 0.048,0.012c0.033,0.008 0.067,0.015 0.101,0.022c0.02,0.003 0.039,0.007 0.058,0.01c0.016,0.003 0.031,0.006 0.046,0.009c0.017,0.002 0.035,0.005 0.052,0.007c0.017,0.003 0.032,0.005 0.049,0.007c0.047,0.005 0.095,0.01 0.141,0.014c0.009,0 0.02,0 0.029,0c0.04,0.003 0.079,0.004 0.119,0.005c0.019,0 0.037,0 0.054,0c0.033,0 0.066,-0.001 0.098,-0.002c0.018,-0.001 0.036,-0.002 0.053,-0.003c0.047,-0.003 0.093,-0.007 0.139,-0.012c0.015,-0.001 0.027,-0.003 0.042,-0.006c0.034,-0.004 0.07,-0.009 0.105,-0.015c0.019,-0.003 0.037,-0.006 0.057,-0.01c0.031,-0.006 0.062,-0.013 0.093,-0.02c0.018,-0.004 0.035,-0.007 0.053,-0.012c0.045,-0.011 0.091,-0.023 0.136,-0.037c0.014,-0.005 0.028,-0.009 0.042,-0.013c0.033,-0.011 0.067,-0.023 0.101,-0.035c0.017,-0.006 0.035,-0.012 0.052,-0.019c0.033,-0.013 0.065,-0.027 0.098,-0.04c0.01,-0.005 0.021,-0.008 0.031,-0.013" style="fill:#f9c7ba;fill-rule:nonzero;"/><path d="M54.074,3.484c0.025,0.2 0.021,0.4 -0.009,0.595c-0.134,0.846 -0.759,1.521 -1.592,1.723c-0.789,0.19 -1.601,-0.079 -2.12,-0.703c-0.157,-0.188 -0.279,-0.401 -0.362,-0.629l-0.434,-1.197c-0.068,-0.187 -0.054,-0.389 0.041,-0.566c0.094,-0.176 0.253,-0.298 0.448,-0.345l3.02,-0.728c0.09,-0.022 0.182,-0.025 0.271,-0.011c0.099,0.015 0.195,0.054 0.282,0.113c0.165,0.113 0.27,0.284 0.295,0.481c0.001,0.004 0.002,0.007 0.002,0.011c0,0.002 0.001,0.004 0.001,0.006l0.157,1.25Z" style="fill:#f9c7ba;fill-rule:nonzero;"/><path d="M67.475,5.536c0.036,0.198 -0.013,0.393 -0.136,0.551l0,0.001l-0.783,1.003c-0.149,0.192 -0.33,0.356 -0.537,0.487c-0.686,0.433 -1.543,0.437 -2.234,0.014c-0.73,-0.449 -1.116,-1.285 -0.982,-2.131c0.031,-0.194 0.089,-0.385 0.175,-0.568l0.535,-1.142c0.002,-0.002 0.003,-0.006 0.005,-0.008l0,-0.001c0.001,-0.002 0.002,-0.004 0.003,-0.005c0.085,-0.18 0.238,-0.31 0.429,-0.366c0.191,-0.057 0.389,-0.03 0.559,0.074l2.647,1.625c0.17,0.104 0.284,0.269 0.319,0.466" style="fill:#f9c7ba;fill-rule:nonzero;"/><path d="M61.596,9.951c0.177,0.029 0.298,0.195 0.27,0.373c-0.028,0.177 -0.195,0.298 -0.372,0.27c-0.177,-0.028 -0.299,-0.195 -0.271,-0.372c0.029,-0.177 0.195,-0.299 0.373,-0.271Z" style="fill:#fff;"/><path d="M61.223,10.222c-0.028,0.178 0.093,0.344 0.271,0.372c0.177,0.028 0.344,-0.092 0.372,-0.27c0.028,-0.177 -0.093,-0.345 -0.27,-0.373c-0.178,-0.028 -0.344,0.094 -0.373,0.271m-0.433,0.481c0.115,-0.727 0.59,-1.256 1.062,-1.182c0.471,0.075 0.76,0.725 0.645,1.452c-0.115,0.727 -0.59,1.256 -1.062,1.181c-0.472,-0.075 -0.76,-0.725 -0.645,-1.451" style="fill-rule:nonzero;"/><path d="M57.096,12.118c1.645,0.26 2,0.037 2.08,-0.465c0.129,-0.818 -0.566,-1.609 -1.552,-1.765c-0.985,-0.156 -1.891,0.382 -2.02,1.199c-0.106,0.669 0.26,0.836 1.492,1.031m0.601,-2.689c1.238,0.196 2.107,1.226 1.938,2.296c-0.195,1.234 -1.649,1.004 -2.611,0.852c-0.973,-0.154 -2.075,-0.328 -1.88,-1.562c0.17,-1.07 1.315,-1.782 2.553,-1.586" style="fill-rule:nonzero;"/><path d="M58.169,10.946c0.161,0.026 0.259,0.258 0.218,0.517c-0.041,0.26 -0.206,0.45 -0.367,0.425c-0.162,-0.026 -0.259,-0.258 -0.218,-0.517c0.041,-0.26 0.205,-0.45 0.367,-0.425Z"/><path d="M56.779,10.727c0.162,0.025 0.259,0.257 0.218,0.516c-0.041,0.26 -0.205,0.45 -0.367,0.425c-0.161,-0.026 -0.259,-0.257 -0.218,-0.517c0.041,-0.26 0.206,-0.45 0.367,-0.424Z"/><path d="M53.46,8.664c0.177,0.028 0.298,0.195 0.27,0.372c-0.028,0.178 -0.195,0.299 -0.372,0.271c-0.178,-0.028 -0.299,-0.195 -0.271,-0.372c0.028,-0.178 0.195,-0.299 0.373,-0.271Z" style="fill:#fff;"/><path d="M53.46,8.664c-0.178,-0.028 -0.345,0.093 -0.373,0.271c-0.028,0.178 0.094,0.344 0.271,0.372c0.177,0.028 0.344,-0.092 0.372,-0.271c0.028,-0.177 -0.093,-0.344 -0.27,-0.372m-0.806,0.752c0.115,-0.727 0.591,-1.257 1.062,-1.182c0.472,0.075 0.761,0.725 0.646,1.452c-0.115,0.726 -0.591,1.256 -1.063,1.181c-0.471,-0.075 -0.76,-0.725 -0.645,-1.451" style="fill-rule:nonzero;"/><path d="M54.065,4.079c0.03,-0.195 0.034,-0.395 0.009,-0.595l-0.157,-1.25c0,-0.002 0,-0.004 -0.001,-0.006c0,-0.004 -0.001,-0.007 -0.002,-0.011c-0.025,-0.197 -0.13,-0.368 -0.295,-0.481c-0.087,-0.059 -0.183,-0.098 -0.282,-0.113c-0.089,-0.014 -0.181,-0.011 -0.271,0.011l-3.02,0.728c-0.195,0.047 -0.354,0.169 -0.448,0.345c-0.095,0.177 -0.109,0.379 -0.041,0.566l0.434,1.197c0.083,0.228 0.205,0.441 0.362,0.629c0.519,0.624 1.331,0.893 2.12,0.703c0.833,-0.202 1.458,-0.877 1.592,-1.723m13.274,2.008c0.123,-0.158 0.172,-0.353 0.136,-0.551c-0.035,-0.197 -0.149,-0.362 -0.319,-0.467l-2.647,-1.624c-0.17,-0.104 -0.368,-0.131 -0.559,-0.074c-0.191,0.056 -0.344,0.186 -0.429,0.366c-0.001,0.001 -0.002,0.003 -0.003,0.005l0,0.001c-0.002,0.002 -0.003,0.006 -0.005,0.008l-0.535,1.142c-0.086,0.182 -0.144,0.374 -0.175,0.568c-0.134,0.846 0.252,1.682 0.982,2.131c0.692,0.423 1.548,0.419 2.234,-0.014c0.207,-0.131 0.388,-0.295 0.537,-0.487l0.783,-1.003l0,-0.001Zm0.776,-0.667c0.068,0.377 -0.027,0.767 -0.263,1.068l-0.782,1.002c-0.142,0.184 -0.307,0.346 -0.49,0.487c0.471,1.412 0.607,2.865 0.393,4.221c-0.358,2.262 -1.635,4.037 -3.693,5.132c-1.913,1.019 -4.393,1.354 -6.983,0.945c-2.59,-0.41 -4.846,-1.495 -6.351,-3.054c-1.619,-1.678 -2.285,-3.76 -1.927,-6.022c0.215,-1.356 0.793,-2.696 1.677,-3.893c-0.131,-0.191 -0.238,-0.397 -0.316,-0.615l-0.434,-1.195c-0.132,-0.359 -0.102,-0.759 0.079,-1.097c0.18,-0.336 0.498,-0.58 0.868,-0.669l3.02,-0.728c0.369,-0.089 0.76,-0.018 1.074,0.197c0.202,0.139 0.359,0.328 0.46,0.547c1.477,-0.538 3.039,-0.697 4.538,-0.46c1.499,0.237 2.935,0.871 4.175,1.837c0.162,-0.175 0.371,-0.307 0.606,-0.377c0.365,-0.107 0.759,-0.054 1.084,0.145l2.646,1.624c0.325,0.199 0.551,0.529 0.619,0.905m-3.55,3.118c-0.017,-0.002 -0.032,-0.004 -0.049,-0.007c-0.017,-0.002 -0.035,-0.005 -0.052,-0.007c-0.015,-0.003 -0.03,-0.006 -0.046,-0.009c-0.019,-0.003 -0.038,-0.007 -0.058,-0.01c-0.034,-0.007 -0.068,-0.014 -0.101,-0.022c-0.016,-0.004 -0.032,-0.007 -0.048,-0.012c-0.048,-0.012 -0.097,-0.025 -0.146,-0.041c-0.009,-0.003 -0.02,-0.007 -0.03,-0.01c-0.038,-0.013 -0.077,-0.026 -0.115,-0.041c-0.017,-0.006 -0.034,-0.013 -0.049,-0.02c-0.033,-0.013 -0.065,-0.026 -0.097,-0.041c-0.016,-0.007 -0.034,-0.014 -0.051,-0.023c-0.033,-0.014 -0.065,-0.031 -0.097,-0.047c-0.014,-0.008 -0.029,-0.015 -0.044,-0.023c-0.047,-0.025 -0.093,-0.051 -0.137,-0.079c-0.956,-0.586 -1.46,-1.68 -1.285,-2.786c0.041,-0.256 0.118,-0.505 0.229,-0.743l0.435,-0.93c-1.167,-0.928 -2.525,-1.534 -3.941,-1.758c-1.416,-0.224 -2.894,-0.067 -4.291,0.455l0.127,1.02c0.032,0.26 0.029,0.521 -0.012,0.776c-0.175,1.107 -0.991,1.992 -2.082,2.254c-0.051,0.013 -0.102,0.023 -0.154,0.033c-0.017,0.003 -0.033,0.005 -0.05,0.008c-0.035,0.006 -0.071,0.011 -0.107,0.015c-0.018,0.003 -0.037,0.005 -0.055,0.006c-0.035,0.004 -0.07,0.007 -0.104,0.009c-0.018,0.002 -0.036,0.003 -0.053,0.004c-0.042,0.002 -0.085,0.003 -0.126,0.003c-0.01,0 -0.019,0.001 -0.028,0c-0.051,0.001 -0.103,-0.002 -0.154,-0.005c-0.013,0 -0.026,-0.003 -0.04,-0.003c-0.038,-0.003 -0.075,-0.007 -0.113,-0.011c-0.017,-0.002 -0.034,-0.005 -0.051,-0.007c-0.016,-0.002 -0.034,-0.004 -0.051,-0.006c-0.019,-0.003 -0.038,-0.007 -0.057,-0.011c-0.014,-0.003 -0.027,-0.005 -0.039,-0.008c-0.05,-0.009 -0.099,-0.02 -0.147,-0.032l-0.004,-0.001c-0.047,-0.012 -0.093,-0.026 -0.139,-0.04c-0.014,-0.004 -0.026,-0.008 -0.039,-0.012c-0.037,-0.013 -0.074,-0.025 -0.11,-0.039c-0.012,-0.004 -0.023,-0.009 -0.034,-0.012c-0.047,-0.019 -0.093,-0.039 -0.138,-0.059c-0.005,-0.003 -0.009,-0.004 -0.014,-0.007c-0.041,-0.019 -0.081,-0.038 -0.121,-0.06c-0.012,-0.006 -0.024,-0.013 -0.037,-0.02c-0.034,-0.018 -0.068,-0.038 -0.102,-0.058c-0.01,-0.006 -0.021,-0.012 -0.031,-0.018c-0.042,-0.026 -0.084,-0.054 -0.125,-0.083l-0.021,-0.014c-0.033,-0.025 -0.067,-0.05 -0.101,-0.076c-0.012,-0.009 -0.024,-0.019 -0.036,-0.029c-0.03,-0.024 -0.06,-0.049 -0.088,-0.074c-0.007,-0.006 -0.015,-0.012 -0.022,-0.019c-0.774,1.083 -1.281,2.284 -1.472,3.493c-0.646,4.082 2.536,7.508 7.737,8.331c5.201,0.823 9.285,-1.454 9.931,-5.536c0.191,-1.21 0.08,-2.508 -0.322,-3.776c-0.01,0.005 -0.021,0.008 -0.031,0.013c-0.033,0.013 -0.065,0.027 -0.098,0.04c-0.017,0.007 -0.035,0.013 -0.052,0.019c-0.034,0.012 -0.068,0.024 -0.101,0.035c-0.014,0.004 -0.028,0.008 -0.042,0.013c-0.045,0.014 -0.091,0.026 -0.136,0.037c-0.018,0.004 -0.035,0.008 -0.053,0.012c-0.031,0.007 -0.062,0.014 -0.093,0.02c-0.02,0.004 -0.038,0.007 -0.057,0.01c-0.035,0.006 -0.071,0.011 -0.105,0.015c-0.015,0.003 -0.027,0.005 -0.042,0.006c-0.046,0.005 -0.092,0.009 -0.139,0.012c-0.017,0.001 -0.035,0.002 -0.053,0.003c-0.032,0.001 -0.065,0.002 -0.097,0.002c-0.018,0 -0.036,0 -0.055,0c-0.04,-0.001 -0.079,-0.002 -0.119,-0.005c-0.009,0 -0.02,0 -0.029,0c-0.046,-0.004 -0.094,-0.009 -0.141,-0.014" style="fill-rule:nonzero;"/></g></g></g><g><g><g><path d="M91.046,15.321l-0.053,0c-0.737,-0.08 -1.24,-0.413 -1.506,-1c-0.196,-0.444 -0.293,-0.973 -0.293,-1.586c0,-0.186 0.024,-0.546 0.073,-1.08c0.049,-0.533 0.211,-1.257 0.486,-2.172c-0.835,1.164 -1.821,2.799 -2.959,4.905c-0.222,0.418 -0.382,0.707 -0.48,0.867c-0.204,0.088 -0.404,0.133 -0.6,0.133c-0.168,0 -0.38,-0.049 -0.633,-0.147c-0.253,-0.098 -0.451,-0.253 -0.593,-0.466c-0.409,-0.72 -0.613,-1.533 -0.613,-2.44c0,-0.062 0.007,-0.349 0.02,-0.86c0.013,-0.51 0.149,-1.226 0.406,-2.146c0.258,-0.919 0.516,-1.681 0.774,-2.286c0.195,-0.409 0.524,-0.657 0.986,-0.746c0.204,-0.036 0.413,-0.054 0.626,-0.054c0.276,0 0.614,0.045 1.014,0.134c0.399,0.089 0.764,0.244 1.093,0.466c-0.329,0.409 -0.758,1.169 -1.287,2.28c-0.528,1.111 -0.908,2.368 -1.139,3.772l0.04,-0.066c0.657,-1.262 1.35,-2.431 2.079,-3.506c1.306,-1.947 2.448,-3.035 3.426,-3.266l0.226,-0.014c0.454,0 0.858,0.169 1.214,0.507c0.266,0.258 0.399,0.547 0.399,0.866c0,0.178 -0.04,0.36 -0.12,0.547c-0.373,0.755 -0.73,1.584 -1.073,2.486c-0.342,0.902 -0.588,1.691 -0.739,2.366c-0.063,0.276 -0.094,0.502 -0.094,0.68c0,0.293 0.085,0.44 0.254,0.44c0.515,0 1.195,-0.72 2.039,-2.16c0.391,-0.657 0.635,-1.088 0.733,-1.293c0.045,-0.071 0.08,-0.106 0.107,-0.106c0.044,0 0.066,0.049 0.066,0.146c-0.062,0.729 -0.304,1.467 -0.726,2.213c-0.422,0.747 -0.922,1.364 -1.5,1.853c-0.577,0.489 -1.128,0.733 -1.653,0.733Zm-20.981,-8.158c-0.16,0.782 -0.52,1.173 -1.08,1.173c-0.169,0 -0.364,-0.075 -0.586,-0.226c-0.223,-0.151 -0.334,-0.476 -0.334,-0.973c0,-0.267 0.098,-0.514 0.294,-0.74c0.195,-0.227 0.484,-0.34 0.866,-0.34l5.799,0c0.533,0.098 0.799,0.386 0.799,0.866c0,0.356 -0.124,0.693 -0.373,1.013c-1.066,1.191 -2.088,2.195 -3.066,3.013c-0.533,0.471 -0.971,0.882 -1.313,1.233c-0.342,0.351 -0.522,0.642 -0.54,0.873l0.414,-0.147c1.066,-0.444 1.928,-0.666 2.586,-0.666c0.106,0 0.306,0.013 0.6,0.04c0.293,0.027 0.551,0.267 0.773,0.72c0.097,0.213 0.146,0.489 0.146,0.826c0,0.391 -0.066,0.876 -0.2,1.453c-0.933,-0.329 -1.892,-0.493 -2.879,-0.493c-0.195,0 -0.644,0.024 -1.346,0.073c-0.702,0.049 -1.413,0.154 -2.133,0.314c-0.364,0.071 -0.604,0.106 -0.72,0.106c-0.64,-0.018 -0.96,-0.253 -0.96,-0.706c0,-0.027 0.011,-0.178 0.034,-0.453c0.022,-0.276 0.275,-0.8 0.759,-1.573c0.485,-0.774 1.047,-1.556 1.687,-2.347c0.64,-0.79 1.217,-1.468 1.733,-2.032c0.515,-0.565 0.83,-0.9 0.946,-1.007l-1.906,0Zm8.464,7.972c-0.71,0 -1.27,-0.223 -1.679,-0.667c-0.596,-0.649 -0.893,-1.582 -0.893,-2.799c0,-0.365 0.046,-0.84 0.14,-1.427c0.093,-0.586 0.322,-1.23 0.686,-1.932c0.365,-0.702 0.836,-1.276 1.413,-1.72c0.578,-0.444 1.249,-0.68 2.013,-0.706c0.995,0.008 1.737,0.319 2.226,0.933c0.516,0.675 0.773,1.524 0.773,2.546c0,0.844 -0.173,1.706 -0.52,2.586c-0.346,0.88 -0.875,1.628 -1.586,2.246c-0.711,0.617 -1.568,0.931 -2.573,0.94Zm0.76,-1.133c0.365,0 0.72,-0.212 1.067,-0.634c0.346,-0.422 0.648,-0.939 0.906,-1.553c0.4,-0.968 0.6,-1.835 0.6,-2.599c0,-0.835 -0.258,-1.253 -0.773,-1.253c-0.302,0 -0.609,0.222 -0.92,0.667c-0.284,0.408 -0.54,0.908 -0.766,1.499c-0.227,0.591 -0.394,1.184 -0.5,1.78c-0.08,0.426 -0.12,0.8 -0.12,1.119c0,0.125 0.015,0.318 0.046,0.58c0.032,0.262 0.185,0.394 0.46,0.394Z" style="fill:none;stroke:#000;stroke-width:1.3px;"/><path d="M91.046,15.321l-0.053,0c-0.737,-0.08 -1.24,-0.413 -1.506,-1c-0.196,-0.444 -0.293,-0.973 -0.293,-1.586c0,-0.186 0.024,-0.546 0.073,-1.08c0.049,-0.533 0.211,-1.257 0.486,-2.172c-0.835,1.164 -1.821,2.799 -2.959,4.905c-0.222,0.418 -0.382,0.707 -0.48,0.867c-0.204,0.088 -0.404,0.133 -0.6,0.133c-0.168,0 -0.38,-0.049 -0.633,-0.147c-0.253,-0.098 -0.451,-0.253 -0.593,-0.466c-0.409,-0.72 -0.613,-1.533 -0.613,-2.44c0,-0.062 0.007,-0.349 0.02,-0.86c0.013,-0.51 0.149,-1.226 0.406,-2.146c0.258,-0.919 0.516,-1.681 0.774,-2.286c0.195,-0.409 0.524,-0.657 0.986,-0.746c0.204,-0.036 0.413,-0.054 0.626,-0.054c0.276,0 0.614,0.045 1.014,0.134c0.399,0.089 0.764,0.244 1.093,0.466c-0.329,0.409 -0.758,1.169 -1.287,2.28c-0.528,1.111 -0.908,2.368 -1.139,3.772l0.04,-0.066c0.657,-1.262 1.35,-2.431 2.079,-3.506c1.306,-1.947 2.448,-3.035 3.426,-3.266l0.226,-0.014c0.454,0 0.858,0.169 1.214,0.507c0.266,0.258 0.399,0.547 0.399,0.866c0,0.178 -0.04,0.36 -0.12,0.547c-0.373,0.755 -0.73,1.584 -1.073,2.486c-0.342,0.902 -0.588,1.691 -0.739,2.366c-0.063,0.276 -0.094,0.502 -0.094,0.68c0,0.293 0.085,0.44 0.254,0.44c0.515,0 1.195,-0.72 2.039,-2.16c0.391,-0.657 0.635,-1.088 0.733,-1.293c0.045,-0.071 0.08,-0.106 0.107,-0.106c0.044,0 0.066,0.049 0.066,0.146c-0.062,0.729 -0.304,1.467 -0.726,2.213c-0.422,0.747 -0.922,1.364 -1.5,1.853c-0.577,0.489 -1.128,0.733 -1.653,0.733Zm-20.981,-8.158c-0.16,0.782 -0.52,1.173 -1.08,1.173c-0.169,0 -0.364,-0.075 -0.586,-0.226c-0.223,-0.151 -0.334,-0.476 -0.334,-0.973c0,-0.267 0.098,-0.514 0.294,-0.74c0.195,-0.227 0.484,-0.34 0.866,-0.34l5.799,0c0.533,0.098 0.799,0.386 0.799,0.866c0,0.356 -0.124,0.693 -0.373,1.013c-1.066,1.191 -2.088,2.195 -3.066,3.013c-0.533,0.471 -0.971,0.882 -1.313,1.233c-0.342,0.351 -0.522,0.642 -0.54,0.873l0.414,-0.147c1.066,-0.444 1.928,-0.666 2.586,-0.666c0.106,0 0.306,0.013 0.6,0.04c0.293,0.027 0.551,0.267 0.773,0.72c0.097,0.213 0.146,0.489 0.146,0.826c0,0.391 -0.066,0.876 -0.2,1.453c-0.933,-0.329 -1.892,-0.493 -2.879,-0.493c-0.195,0 -0.644,0.024 -1.346,0.073c-0.702,0.049 -1.413,0.154 -2.133,0.314c-0.364,0.071 -0.604,0.106 -0.72,0.106c-0.64,-0.018 -0.96,-0.253 -0.96,-0.706c0,-0.027 0.011,-0.178 0.034,-0.453c0.022,-0.276 0.275,-0.8 0.759,-1.573c0.485,-0.774 1.047,-1.556 1.687,-2.347c0.64,-0.79 1.217,-1.468 1.733,-2.032c0.515,-0.565 0.83,-0.9 0.946,-1.007l-1.906,0Zm8.464,7.972c-0.71,0 -1.27,-0.223 -1.679,-0.667c-0.596,-0.649 -0.893,-1.582 -0.893,-2.799c0,-0.365 0.046,-0.84 0.14,-1.427c0.093,-0.586 0.322,-1.23 0.686,-1.932c0.365,-0.702 0.836,-1.276 1.413,-1.72c0.578,-0.444 1.249,-0.68 2.013,-0.706c0.995,0.008 1.737,0.319 2.226,0.933c0.516,0.675 0.773,1.524 0.773,2.546c0,0.844 -0.173,1.706 -0.52,2.586c-0.346,0.88 -0.875,1.628 -1.586,2.246c-0.711,0.617 -1.568,0.931 -2.573,0.94Zm0.76,-1.133c0.365,0 0.72,-0.212 1.067,-0.634c0.346,-0.422 0.648,-0.939 0.906,-1.553c0.4,-0.968 0.6,-1.835 0.6,-2.599c0,-0.835 -0.258,-1.253 -0.773,-1.253c-0.302,0 -0.609,0.222 -0.92,0.667c-0.284,0.408 -0.54,0.908 -0.766,1.499c-0.227,0.591 -0.394,1.184 -0.5,1.78c-0.08,0.426 -0.12,0.8 -0.12,1.119c0,0.125 0.015,0.318 0.046,0.58c0.032,0.262 0.185,0.394 0.46,0.394Z" style="fill:#f9c7ba;fill-rule:nonzero;"/></g></g><path d="M9.1,17.774c-0.497,0 -0.919,-0.115 -1.265,-0.346c-0.248,-0.168 -0.403,-0.417 -0.466,-0.745c0.16,0.097 0.333,0.146 0.52,0.146c0.363,0 0.82,-0.255 1.371,-0.765c0.55,-0.51 1.151,-1.345 1.803,-2.503c0.653,-1.158 1.227,-2.407 1.724,-3.747c-0.373,0.107 -0.701,0.266 -0.985,0.479c0,-0.452 0.122,-0.803 0.366,-1.051c0.244,-0.249 0.57,-0.408 0.978,-0.479c0.347,-1.101 0.568,-2.112 0.666,-3.035c0.036,-0.284 0.053,-0.55 0.053,-0.799c0,-1.358 -0.452,-2.036 -1.357,-2.036l-0.267,0.013c-1.508,0.293 -2.842,1.018 -4,2.176c-1.158,1.158 -2.003,2.509 -2.535,4.053c-0.329,0.941 -0.493,1.868 -0.493,2.782c0,0.577 0.067,1.15 0.2,1.718l-0.386,0.013c-0.648,0 -1.24,-0.191 -1.777,-0.573c-0.537,-0.381 -0.963,-0.865 -1.278,-1.45c-0.315,-0.586 -0.473,-1.11 -0.473,-1.571l0,-0.04c0.054,-1.198 0.57,-2.378 1.551,-3.541c0.981,-1.162 2.276,-2.143 3.887,-2.942c1.61,-0.798 3.388,-1.26 5.331,-1.384l0.266,0c1.296,0 2.254,0.315 2.875,0.945c0.666,0.666 0.999,1.624 0.999,2.875c0,1.003 -0.169,2.086 -0.506,3.248c0.736,0.329 1.353,0.755 1.85,1.278c0.062,-0.355 0.124,-0.648 0.186,-0.878c0.347,-1.411 0.719,-2.703 1.119,-3.874c0.399,-1.171 0.705,-2.001 0.918,-2.489c0.195,-0.408 0.541,-0.661 1.038,-0.759c0.231,-0.044 0.462,-0.066 0.692,-0.066c0.284,0 0.633,0.044 1.045,0.133c0.413,0.088 0.784,0.244 1.112,0.466c-0.257,0.355 -0.688,1.222 -1.291,2.602c-0.604,1.38 -1.181,2.884 -1.731,4.512c-0.55,1.629 -0.874,2.993 -0.971,4.094l0,0.306c0,1.207 0.199,1.956 0.599,2.249c-0.293,0.062 -0.564,0.093 -0.812,0.093c-0.577,0 -1.054,-0.221 -1.431,-0.665c-0.378,-0.444 -0.602,-1.105 -0.673,-1.983c-0.301,-1.784 -0.985,-3.062 -2.049,-3.834c-0.16,0.444 -0.333,0.874 -0.52,1.291c-0.221,0.497 -0.543,1.105 -0.965,1.824c-0.421,0.719 -0.918,1.424 -1.49,2.116c-0.573,0.692 -1.187,1.243 -1.844,1.651c-0.515,0.328 -1.043,0.492 -1.584,0.492Zm19.9,-2.023l-0.053,0c-1.074,-0.115 -1.669,-0.808 -1.784,-2.077c-0.346,0.542 -0.732,0.959 -1.158,1.252c-0.426,0.293 -0.843,0.439 -1.251,0.439c-0.719,0 -1.283,-0.222 -1.691,-0.666c-0.603,-0.638 -0.905,-1.561 -0.905,-2.768c0,-0.346 0.049,-0.806 0.146,-1.378c0.098,-0.572 0.329,-1.2 0.693,-1.883c0.364,-0.684 0.834,-1.245 1.411,-1.684c0.576,-0.44 1.242,-0.659 1.996,-0.659c1.163,0 1.828,0.532 1.997,1.597l0.266,-0.599c0.195,-0.399 0.524,-0.648 0.985,-0.745c0.222,-0.045 0.448,-0.067 0.679,-0.067c0.249,0 0.564,0.042 0.945,0.127c0.382,0.084 0.737,0.237 1.065,0.459c-0.266,0.364 -0.577,0.923 -0.932,1.677c-0.355,0.754 -0.687,1.553 -0.998,2.396c-0.311,0.843 -0.528,1.571 -0.652,2.183c-0.045,0.24 -0.067,0.435 -0.067,0.586c0,0.284 0.08,0.426 0.24,0.426c0.514,0 1.193,-0.719 2.036,-2.157c0.087,-0.145 0.166,-0.279 0.237,-0.401c0.028,-0.502 0.162,-1.183 0.402,-2.041c0.258,-0.919 0.515,-1.68 0.772,-2.283c0.196,-0.408 0.524,-0.657 0.985,-0.746c0.204,-0.035 0.413,-0.053 0.626,-0.053c0.275,0 0.612,0.045 1.012,0.133c0.399,0.089 0.763,0.244 1.091,0.466c-0.328,0.408 -0.756,1.167 -1.284,2.276c-0.528,1.11 -0.908,2.365 -1.139,3.767l0.147,-0.319c0.284,-0.666 0.648,-1.44 1.091,-2.323c0.444,-0.883 0.957,-1.695 1.538,-2.436c0.581,-0.741 1.213,-1.235 1.897,-1.484c0.204,-0.071 0.412,-0.106 0.625,-0.106c0.506,0 1.03,0.208 1.571,0.625c-0.337,0.408 -0.768,1.167 -1.291,2.276c-0.524,1.11 -0.896,2.365 -1.118,3.767l0.04,-0.066c0.106,-0.213 0.348,-0.65 0.725,-1.311c0.377,-0.661 0.836,-1.394 1.378,-2.197c0.541,-0.803 1.111,-1.513 1.71,-2.129c0.599,-0.617 1.178,-0.992 1.737,-1.125l0.213,-0.013c0.453,0 0.857,0.168 1.212,0.505c0.266,0.267 0.399,0.559 0.399,0.879c0,0.168 -0.036,0.346 -0.107,0.532c-0.372,0.755 -0.729,1.582 -1.071,2.483c-0.342,0.901 -0.588,1.688 -0.739,2.363c-0.062,0.275 -0.093,0.501 -0.093,0.678c0,0.293 0.084,0.44 0.253,0.44c0.266,0 0.572,-0.191 0.918,-0.573c0.48,-0.55 1.056,-1.433 1.731,-2.649c0.097,-0.221 0.173,-0.332 0.226,-0.332c0.044,0 0.067,0.048 0.067,0.146c-0.062,0.728 -0.304,1.464 -0.726,2.21c-0.421,0.745 -0.921,1.362 -1.497,1.85c-0.577,0.488 -1.127,0.732 -1.651,0.732l-0.053,0c-0.737,-0.08 -1.238,-0.413 -1.504,-0.998c-0.196,-0.444 -0.293,-0.972 -0.293,-1.584c0,-0.187 0.024,-0.546 0.073,-1.079c0.049,-0.532 0.211,-1.255 0.486,-2.169c-0.932,1.287 -1.943,2.942 -3.035,4.965c-0.213,0.381 -0.368,0.648 -0.466,0.798c-0.204,0.089 -0.395,0.134 -0.572,0.134c-0.151,0 -0.333,-0.049 -0.546,-0.147c-0.213,-0.097 -0.377,-0.253 -0.493,-0.466c-0.292,-0.514 -0.439,-1.078 -0.439,-1.69c0,-0.728 0.133,-1.629 0.4,-2.702c0.035,-0.142 0.066,-0.289 0.093,-0.44c-0.755,1.145 -1.54,2.569 -2.356,4.273c-0.24,0.506 -0.417,0.852 -0.533,1.038c-0.204,0.089 -0.408,0.134 -0.612,0.134c-0.16,0 -0.368,-0.049 -0.626,-0.147c-0.257,-0.097 -0.452,-0.253 -0.585,-0.466c-0.359,-0.632 -0.56,-1.336 -0.604,-2.112c-0.014,0.025 -0.028,0.05 -0.042,0.076c-0.421,0.745 -0.921,1.362 -1.497,1.85c-0.577,0.488 -1.127,0.732 -1.651,0.732Zm-3.527,-1.384c0.301,-0.027 0.623,-0.34 0.965,-0.939c0.341,-0.599 0.636,-1.298 0.885,-2.096c0.257,-0.852 0.386,-1.584 0.386,-2.197c0,-0.514 -0.16,-0.781 -0.479,-0.798c-0.293,0.044 -0.579,0.268 -0.859,0.672c-0.28,0.404 -0.532,0.903 -0.759,1.497c-0.226,0.595 -0.397,1.185 -0.512,1.771c-0.08,0.426 -0.12,0.803 -0.12,1.131c0,0.125 0.013,0.315 0.04,0.573c0.027,0.257 0.177,0.386 0.453,0.386Z" style="fill:none;stroke:#000;stroke-width:1.3px;"/><path d="M9.1,17.774c-0.497,0 -0.919,-0.115 -1.265,-0.346c-0.248,-0.168 -0.403,-0.417 -0.466,-0.745c0.16,0.097 0.333,0.146 0.52,0.146c0.363,0 0.82,-0.255 1.371,-0.765c0.55,-0.51 1.151,-1.345 1.803,-2.503c0.653,-1.158 1.227,-2.407 1.724,-3.747c-0.373,0.107 -0.701,0.266 -0.985,0.479c0,-0.452 0.122,-0.803 0.366,-1.051c0.244,-0.249 0.57,-0.408 0.978,-0.479c0.347,-1.101 0.568,-2.112 0.666,-3.035c0.036,-0.284 0.053,-0.55 0.053,-0.799c0,-1.358 -0.452,-2.036 -1.357,-2.036l-0.267,0.013c-1.508,0.293 -2.842,1.018 -4,2.176c-1.158,1.158 -2.003,2.509 -2.535,4.053c-0.329,0.941 -0.493,1.868 -0.493,2.782c0,0.577 0.067,1.15 0.2,1.718l-0.386,0.013c-0.648,0 -1.24,-0.191 -1.777,-0.573c-0.537,-0.381 -0.963,-0.865 -1.278,-1.45c-0.315,-0.586 -0.473,-1.11 -0.473,-1.571l0,-0.04c0.054,-1.198 0.57,-2.378 1.551,-3.541c0.981,-1.162 2.276,-2.143 3.887,-2.942c1.61,-0.798 3.388,-1.26 5.331,-1.384l0.266,0c1.296,0 2.254,0.315 2.875,0.945c0.666,0.666 0.999,1.624 0.999,2.875c0,1.003 -0.169,2.086 -0.506,3.248c0.736,0.329 1.353,0.755 1.85,1.278c0.062,-0.355 0.124,-0.648 0.186,-0.878c0.347,-1.411 0.719,-2.703 1.119,-3.874c0.399,-1.171 0.705,-2.001 0.918,-2.489c0.195,-0.408 0.541,-0.661 1.038,-0.759c0.231,-0.044 0.462,-0.066 0.692,-0.066c0.284,0 0.633,0.044 1.045,0.133c0.413,0.088 0.784,0.244 1.112,0.466c-0.257,0.355 -0.688,1.222 -1.291,2.602c-0.604,1.38 -1.181,2.884 -1.731,4.512c-0.55,1.629 -0.874,2.993 -0.971,4.094l0,0.306c0,1.207 0.199,1.956 0.599,2.249c-0.293,0.062 -0.564,0.093 -0.812,0.093c-0.577,0 -1.054,-0.221 -1.431,-0.665c-0.378,-0.444 -0.602,-1.105 -0.673,-1.983c-0.301,-1.784 -0.985,-3.062 -2.049,-3.834c-0.16,0.444 -0.333,0.874 -0.52,1.291c-0.221,0.497 -0.543,1.105 -0.965,1.824c-0.421,0.719 -0.918,1.424 -1.49,2.116c-0.573,0.692 -1.187,1.243 -1.844,1.651c-0.515,0.328 -1.043,0.492 -1.584,0.492Zm19.9,-2.023l-0.053,0c-1.074,-0.115 -1.669,-0.808 -1.784,-2.077c-0.346,0.542 -0.732,0.959 -1.158,1.252c-0.426,0.293 -0.843,0.439 -1.251,0.439c-0.719,0 -1.283,-0.222 -1.691,-0.666c-0.603,-0.638 -0.905,-1.561 -0.905,-2.768c0,-0.346 0.049,-0.806 0.146,-1.378c0.098,-0.572 0.329,-1.2 0.693,-1.883c0.364,-0.684 0.834,-1.245 1.411,-1.684c0.576,-0.44 1.242,-0.659 1.996,-0.659c1.163,0 1.828,0.532 1.997,1.597l0.266,-0.599c0.195,-0.399 0.524,-0.648 0.985,-0.745c0.222,-0.045 0.448,-0.067 0.679,-0.067c0.249,0 0.564,0.042 0.945,0.127c0.382,0.084 0.737,0.237 1.065,0.459c-0.266,0.364 -0.577,0.923 -0.932,1.677c-0.355,0.754 -0.687,1.553 -0.998,2.396c-0.311,0.843 -0.528,1.571 -0.652,2.183c-0.045,0.24 -0.067,0.435 -0.067,0.586c0,0.284 0.08,0.426 0.24,0.426c0.514,0 1.193,-0.719 2.036,-2.157c0.087,-0.145 0.166,-0.279 0.237,-0.401c0.028,-0.502 0.162,-1.183 0.402,-2.041c0.258,-0.919 0.515,-1.68 0.772,-2.283c0.196,-0.408 0.524,-0.657 0.985,-0.746c0.204,-0.035 0.413,-0.053 0.626,-0.053c0.275,0 0.612,0.045 1.012,0.133c0.399,0.089 0.763,0.244 1.091,0.466c-0.328,0.408 -0.756,1.167 -1.284,2.276c-0.528,1.11 -0.908,2.365 -1.139,3.767l0.147,-0.319c0.284,-0.666 0.648,-1.44 1.091,-2.323c0.444,-0.883 0.957,-1.695 1.538,-2.436c0.581,-0.741 1.213,-1.235 1.897,-1.484c0.204,-0.071 0.412,-0.106 0.625,-0.106c0.506,0 1.03,0.208 1.571,0.625c-0.337,0.408 -0.768,1.167 -1.291,2.276c-0.524,1.11 -0.896,2.365 -1.118,3.767l0.04,-0.066c0.106,-0.213 0.348,-0.65 0.725,-1.311c0.377,-0.661 0.836,-1.394 1.378,-2.197c0.541,-0.803 1.111,-1.513 1.71,-2.129c0.599,-0.617 1.178,-0.992 1.737,-1.125l0.213,-0.013c0.453,0 0.857,0.168 1.212,0.505c0.266,0.267 0.399,0.559 0.399,0.879c0,0.168 -0.036,0.346 -0.107,0.532c-0.372,0.755 -0.729,1.582 -1.071,2.483c-0.342,0.901 -0.588,1.688 -0.739,2.363c-0.062,0.275 -0.093,0.501 -0.093,0.678c0,0.293 0.084,0.44 0.253,0.44c0.266,0 0.572,-0.191 0.918,-0.573c0.48,-0.55 1.056,-1.433 1.731,-2.649c0.097,-0.221 0.173,-0.332 0.226,-0.332c0.044,0 0.067,0.048 0.067,0.146c-0.062,0.728 -0.304,1.464 -0.726,2.21c-0.421,0.745 -0.921,1.362 -1.497,1.85c-0.577,0.488 -1.127,0.732 -1.651,0.732l-0.053,0c-0.737,-0.08 -1.238,-0.413 -1.504,-0.998c-0.196,-0.444 -0.293,-0.972 -0.293,-1.584c0,-0.187 0.024,-0.546 0.073,-1.079c0.049,-0.532 0.211,-1.255 0.486,-2.169c-0.932,1.287 -1.943,2.942 -3.035,4.965c-0.213,0.381 -0.368,0.648 -0.466,0.798c-0.204,0.089 -0.395,0.134 -0.572,0.134c-0.151,0 -0.333,-0.049 -0.546,-0.147c-0.213,-0.097 -0.377,-0.253 -0.493,-0.466c-0.292,-0.514 -0.439,-1.078 -0.439,-1.69c0,-0.728 0.133,-1.629 0.4,-2.702c0.035,-0.142 0.066,-0.289 0.093,-0.44c-0.755,1.145 -1.54,2.569 -2.356,4.273c-0.24,0.506 -0.417,0.852 -0.533,1.038c-0.204,0.089 -0.408,0.134 -0.612,0.134c-0.16,0 -0.368,-0.049 -0.626,-0.147c-0.257,-0.097 -0.452,-0.253 -0.585,-0.466c-0.359,-0.632 -0.56,-1.336 -0.604,-2.112c-0.014,0.025 -0.028,0.05 -0.042,0.076c-0.421,0.745 -0.921,1.362 -1.497,1.85c-0.577,0.488 -1.127,0.732 -1.651,0.732Zm-3.527,-1.384c0.301,-0.027 0.623,-0.34 0.965,-0.939c0.341,-0.599 0.636,-1.298 0.885,-2.096c0.257,-0.852 0.386,-1.584 0.386,-2.197c0,-0.514 -0.16,-0.781 -0.479,-0.798c-0.293,0.044 -0.579,0.268 -0.859,0.672c-0.28,0.404 -0.532,0.903 -0.759,1.497c-0.226,0.595 -0.397,1.185 -0.512,1.771c-0.08,0.426 -0.12,0.803 -0.12,1.131c0,0.125 0.013,0.315 0.04,0.573c0.027,0.257 0.177,0.386 0.453,0.386Z" style="fill:#f9c7ba;fill-rule:nonzero;"/></g></g></svg>