<?xml version="1.0" encoding="UTF-8" standalone="no"?>
<!DOCTYPE svg PUBLIC "-//W3C//DTD SVG 1.1//EN" "http://www.w3.org/Graphics/SVG/1.1/DTD/svg11.dtd">
<svg width="100%" height="100%" viewBox="0 0 886 495" version="1.1" xmlns="http://www.w3.org/2000/svg" xmlns:xlink="http://www.w3.org/1999/xlink" xml:space="preserve" xmlns:serif="http://www.serif.com/" style="fill-rule:evenodd;clip-rule:evenodd;stroke-linejoin:round;stroke-miterlimit:1.41421;">
    <g id="Artboard1" transform="matrix(0.771674,0,0,0.827269,69.0152,42.8277)">
        <rect x="-89.436" y="-51.77" width="1148.14" height="597.412" style="fill:none;"/>
        <g transform="matrix(1.46622,0,0,1.36769,-263.219,-94.358)">
            <g>
                <g transform="matrix(-2.61178,0,0,2.61178,829.778,360.937)">
                    <path d="M0,-84.392C0,-84.392 -6.4,-68.473 -3.099,-51.169C-0.492,-37.496 4.671,-25.45 8.875,-23.452C11.991,-21.969 12.902,-18.674 11.351,-17.123C9.798,-15.571 9.807,-12.875 11.358,-8.995C12.909,-5.115 10.461,10.392 13.822,15.046C17.181,19.704 24.165,34.438 24.165,34.438L34.25,32.496C34.25,32.496 24.554,15.041 23.777,11.55C23.002,8.059 26.085,-6.42 26.085,-6.42C26.085,-6.42 33.086,6.376 34.25,11.807C35.415,17.243 40.458,34.95 40.458,34.95L56.901,34.95L50.154,21.249C50.154,21.249 44.335,5.733 45.886,3.403C47.439,1.076 62.178,-14.828 61.789,-21.035C61.789,-21.035 88.25,-3.408 116.954,-8.451C145.659,-13.495 150.617,-17.93 150.617,-17.93C150.617,-17.93 153.332,-5.129 154.883,-1.249C156.435,2.63 149.454,31.191 152.169,34.947C154.883,38.699 161.995,37.147 165.228,36.373C168.46,35.597 167.426,32.497 165.228,29.392C163.029,26.288 168.723,10.908 169.818,13.036C171.415,16.141 171.062,24.177 172.613,26.892C174.163,29.61 179.237,35.521 185.916,35.599C189.427,35.637 192.508,35.211 192.121,33.657C191.734,32.107 183.199,25.901 180.872,20.47C178.545,15.041 173.503,-5.905 176.218,-8.235C178.933,-10.562 182.036,-14.44 185.526,-9.398C189.017,-4.354 204.923,13.877 250.306,1.851C250.306,1.851 249.94,-1.071 246.635,-2.858C243.328,-4.646 244.849,-5.45 245.919,-4.913C246.992,-4.377 251.906,-0.623 254.586,-0.89C257.268,-1.16 264.775,-12.153 264.775,-14.386C264.775,-16.62 260.218,-19.211 255.124,-22.429C250.033,-25.646 241.095,-34.404 241.273,-36.369C241.452,-38.335 241.808,-40.213 246.276,-40.749C250.744,-41.286 259.594,-39.678 262.274,-44.773C264.955,-49.865 267.638,-54.334 268.797,-56.299C268.797,-56.299 252.087,-57.729 245.472,-56.479C245.472,-56.479 246.543,-56.211 242.61,-62.109C238.679,-68.007 219.935,-100.719 185.596,-111.262C164.412,-117.766 115.744,-123.091 90.956,-122.214C66.99,-121.366 54.462,-119.463 36.886,-113.228C25.736,-109.273 3.909,-91.6 1.138,-91.245C-1.631,-90.887 -5.475,-98.036 -10.658,-99.287C-15.84,-100.538 -20.487,-101.967 -22.453,-94.729C-24.419,-87.49 -24.51,-83.112 -20.578,-72.297L-16.646,-61.485C-16.646,-61.485 -8.065,-68.901 -9.048,-72.477C-10.033,-76.051 -13.428,-77.57 -12.892,-82.129C-12.356,-86.687 -13.875,-93.032 -10.209,-90.707C-6.546,-88.385 -4.18,-81.65 0,-84.392" style="fill:none;stroke:white;stroke-width:6.09px;"/>
                    <path d="M0,-84.392C0,-84.392 -6.4,-68.473 -3.099,-51.169C-0.492,-37.496 4.671,-25.45 8.875,-23.452C11.991,-21.969 12.902,-18.674 11.351,-17.123C9.798,-15.571 9.807,-12.875 11.358,-8.995C12.909,-5.115 10.461,10.392 13.822,15.046C17.181,19.704 24.165,34.438 24.165,34.438L34.25,32.496C34.25,32.496 24.554,15.041 23.777,11.55C23.002,8.059 26.085,-6.42 26.085,-6.42C26.085,-6.42 33.086,6.376 34.25,11.807C35.415,17.243 40.458,34.95 40.458,34.95L56.901,34.95L50.154,21.249C50.154,21.249 44.335,5.733 45.886,3.403C47.439,1.076 62.178,-14.828 61.789,-21.035C61.789,-21.035 88.25,-3.408 116.954,-8.451C145.659,-13.495 150.617,-17.93 150.617,-17.93C150.617,-17.93 153.332,-5.129 154.883,-1.249C156.435,2.63 149.454,31.191 152.169,34.947C154.883,38.699 161.995,37.147 165.228,36.373C168.46,35.597 167.426,32.497 165.228,29.392C163.029,26.288 168.723,10.908 169.818,13.036C171.415,16.141 171.062,24.177 172.613,26.892C174.163,29.61 179.237,35.521 185.916,35.599C189.427,35.637 192.508,35.211 192.121,33.657C191.734,32.107 183.199,25.901 180.872,20.47C178.545,15.041 173.503,-5.905 176.218,-8.235C178.933,-10.562 182.036,-14.44 185.526,-9.398C189.017,-4.354 204.923,13.877 250.306,1.851C250.306,1.851 249.94,-1.071 246.635,-2.858C243.328,-4.646 244.849,-5.45 245.919,-4.913C246.992,-4.377 251.906,-0.623 254.586,-0.89C257.268,-1.16 264.775,-12.153 264.775,-14.386C264.775,-16.62 260.218,-19.211 255.124,-22.429C250.033,-25.646 241.095,-34.404 241.273,-36.369C241.452,-38.335 241.808,-40.213 246.276,-40.749C250.744,-41.286 259.594,-39.678 262.274,-44.773C264.955,-49.865 267.638,-54.334 268.797,-56.299C268.797,-56.299 252.087,-57.729 245.472,-56.479C245.472,-56.479 246.543,-56.211 242.61,-62.109C238.679,-68.007 219.935,-100.719 185.596,-111.262C164.412,-117.766 115.744,-123.091 90.956,-122.214C66.99,-121.366 54.462,-119.463 36.886,-113.228C25.736,-109.273 3.909,-91.6 1.138,-91.245C-1.631,-90.887 -5.475,-98.036 -10.658,-99.287C-15.84,-100.538 -20.487,-101.967 -22.453,-94.729C-24.419,-87.49 -24.51,-83.112 -20.578,-72.297L-16.646,-61.485C-16.646,-61.485 -8.065,-68.901 -9.048,-72.477C-10.033,-76.051 -13.428,-77.57 -12.892,-82.129C-12.356,-86.687 -13.875,-93.032 -10.209,-90.707C-6.546,-88.385 -4.18,-81.65 0,-84.392" style="fill:rgb(242,201,188);fill-rule:nonzero;"/>
                </g>
                <g>
                    <path d="M729.5,59.441C636.874,121.106 630.825,207.91 668.27,322.074" style="fill:none;stroke:white;stroke-width:3.98px;stroke-linecap:round;stroke-miterlimit:1.5;stroke-dasharray:3.98,11.93,3.98,0;"/>
                    <g transform="matrix(-1,0,0,0.83575,943.876,122.782)">
                        <clipPath id="_clip1">
                            <rect x="637.145" y="53.075" width="97.77" height="251.295"/>
                        </clipPath>
                        <g clip-path="url(#_clip1)">
                            <path d="M729.5,59.441C636.874,121.106 630.825,207.91 668.27,322.074" style="fill:none;stroke:white;stroke-width:4.32px;stroke-linecap:round;stroke-miterlimit:1.5;stroke-dasharray:4.32,12.95,4.32,0;"/>
                        </g>
                    </g>
                    <g transform="matrix(0.122095,0.992518,-1.12078,0.137874,633.724,-586.003)">
                        <path d="M729.5,59.441C651.966,123.308 651.15,210.875 668.27,322.074" style="fill:none;stroke:white;stroke-width:3.73px;stroke-linecap:round;stroke-miterlimit:1.5;stroke-dasharray:3.73,11.19,3.73,0;"/>
                    </g>
                    <g transform="matrix(0.0437361,-0.999043,-0.885675,-0.038773,663.403,910.163)">
                        <clipPath id="_clip2">
                            <rect x="651.807" y="55.249" width="82.301" height="247.338"/>
                        </clipPath>
                        <g clip-path="url(#_clip2)">
                            <path d="M729.5,59.441C651.966,123.308 651.15,210.875 668.27,322.074" style="fill:none;stroke:white;stroke-width:4.21px;stroke-linecap:round;stroke-miterlimit:1.5;stroke-dasharray:4.21,12.63,4.21,0;"/>
                        </g>
                    </g>
                    <g transform="matrix(0.0618326,-1.41241,-0.635228,-0.027809,610.36,1242.58)">
                        <path d="M729.5,59.441C651.966,123.308 651.15,210.875 668.27,322.074" style="fill:none;stroke:white;stroke-width:3.63px;stroke-linecap:round;stroke-miterlimit:1.5;stroke-dasharray:3.63,10.89,3.63,0;"/>
                    </g>
                    <g transform="matrix(0.986033,-0.320252,0.222715,0.685723,-352.392,245.167)">
                        <clipPath id="_clip3">
                            <rect x="658.677" y="65.533" width="70.823" height="256.541"/>
                        </clipPath>
                        <g clip-path="url(#_clip3)">
                            <path d="M729.5,59.441C663.817,121.586 667.448,208.563 668.27,322.074" style="fill:none;stroke:white;stroke-width:4.45px;stroke-linecap:round;stroke-miterlimit:1.5;stroke-dasharray:4.45,13.36,4.45,0;"/>
                        </g>
                    </g>
                    <g transform="matrix(0.840295,0.607228,-0.26412,0.365495,-287.467,-151.637)">
                        <clipPath id="_clip4">
                            <rect x="661.352" y="74.61" width="68.148" height="247.464"/>
                        </clipPath>
                        <g clip-path="url(#_clip4)">
                            <path d="M729.5,59.441C672.887,140.43 674.429,223.067 668.27,322.074" style="fill:none;stroke:white;stroke-width:4.98px;stroke-linecap:round;stroke-miterlimit:1.5;stroke-dasharray:4.98,14.93,4.98,0;"/>
                        </g>
                    </g>
                    <g transform="matrix(-0.459618,0.929287,-0.404202,-0.199916,589.265,-295.019)">
                        <clipPath id="_clip5">
                            <rect x="661.352" y="105.299" width="68.148" height="143.361"/>
                        </clipPath>
                        <g clip-path="url(#_clip5)">
                            <path d="M729.5,59.441C672.887,140.43 674.429,223.067 668.27,322.074" style="fill:none;stroke:white;stroke-width:4.98px;stroke-linecap:round;stroke-miterlimit:1.5;stroke-dasharray:4.98,14.93,4.98,0;"/>
                        </g>
                    </g>
                    <g transform="matrix(-0.752039,0.713625,-0.225044,-0.237158,747.704,-207.814)">
                        <clipPath id="_clip6">
                            <rect x="661.352" y="92.378" width="68.148" height="171.285"/>
                        </clipPath>
                        <g clip-path="url(#_clip6)">
                            <path d="M729.5,59.441C672.887,140.43 674.429,223.067 668.27,322.074" style="fill:none;stroke:white;stroke-width:5.17px;stroke-linecap:round;stroke-miterlimit:1.5;stroke-dasharray:5.17,15.52,5.17,0;"/>
                        </g>
                    </g>
                    <g transform="matrix(-0.842486,-0.604185,-0.420172,0.585895,1131.82,448.47)">
                        <path d="M729.5,59.441C677.74,136.158 679.169,220.829 668.27,322.074" style="fill:none;stroke:white;stroke-width:4.45px;stroke-linecap:round;stroke-miterlimit:1.5;stroke-dasharray:4.45,13.36,4.45,0;"/>
                    </g>
                    <g transform="matrix(-0.0163938,1.47171,-0.284941,-0.00317404,482.194,-720.952)">
                        <clipPath id="_clip7">
                            <rect x="640.075" y="59.441" width="68.218" height="286.489"/>
                        </clipPath>
                        <g clip-path="url(#_clip7)">
                            <path d="M729.5,59.441C636.874,121.106 630.825,207.91 668.27,322.074" style="fill:none;stroke:white;stroke-width:3.75px;stroke-linecap:round;stroke-miterlimit:1.5;stroke-dasharray:3.75,11.26,3.75,0;"/>
                        </g>
                    </g>
                    <g transform="matrix(-0.331028,1.59638,0.228553,0.0473931,578.978,-827.662)">
                        <clipPath id="_clip8">
                            <rect x="683.513" y="-10.197" width="44.101" height="332.271"/>
                        </clipPath>
                        <g clip-path="url(#_clip8)">
                            <path d="M729.5,59.441C636.874,121.106 630.825,207.91 668.27,322.074" style="fill:none;stroke:white;stroke-width:3.42px;stroke-linecap:round;stroke-miterlimit:1.5;stroke-dasharray:3.42,10.25,3.42,0;"/>
                        </g>
                    </g>
                    <g transform="matrix(-0.108506,-0.416681,0.581158,-0.151336,704.669,615.84)">
                        <clipPath id="_clip9">
                            <rect x="625.082" y="70.381" width="104.418" height="251.692"/>
                        </clipPath>
                        <g clip-path="url(#_clip9)">
                            <path d="M729.5,59.441C636.874,121.106 630.825,207.91 668.27,322.074" style="fill:none;stroke:white;stroke-width:7.61px;stroke-linecap:round;stroke-miterlimit:1.5;stroke-dasharray:7.61,22.84,7.61,0;"/>
                        </g>
                    </g>
                    <g transform="matrix(-0.0531268,-0.204016,0.140097,-0.0364819,734.628,533.821)">
                        <path d="M729.5,59.441C636.874,121.106 630.825,207.91 668.27,322.074" style="fill:none;stroke:white;stroke-width:21.99px;stroke-linecap:round;stroke-miterlimit:1.5;stroke-dasharray:21.99,65.98,21.99,0;"/>
                    </g>
                    <g transform="matrix(-0.0543877,-0.208858,0.133229,-0.0346936,791.854,538.861)">
                        <clipPath id="_clip10">
                            <rect x="617.242" y="82.278" width="112.258" height="264.356"/>
                        </clipPath>
                        <g clip-path="url(#_clip10)">
                            <path d="M729.5,59.441C636.874,121.106 630.825,207.91 668.27,322.074" style="fill:none;stroke:white;stroke-width:21.97px;stroke-linecap:round;stroke-miterlimit:1.5;stroke-dasharray:21.97,65.91,21.97,0;"/>
                        </g>
                    </g>
                </g>
            </g>
            <g>
                <g transform="matrix(4.68149,-2.00115,2.00115,4.68149,-2919.62,745.118)">
                    <text x="688.75px" y="189.313px" style="font-family:'CoconPro-Bold', 'CoconPro';font-weight:700;font-size:12px;fill:white;">HAM</text>
                </g>
                <g transform="matrix(2.1377,4.62074,-4.62074,2.1377,-342.477,-3447.31)">
                    <text x="688.75px" y="189.313px" style="font-family:'CoconPro-Bold', 'CoconPro';font-weight:700;font-size:12px;fill:white;">NECK</text>
                </g>
                <g transform="matrix(4.66162,-3.09531,3.09531,4.66162,-3315.13,1486.72)">
                    <text x="688.75px" y="189.313px" style="font-family:'CoconPro-Bold', 'CoconPro';font-weight:700;font-size:12px;fill:white;">L<tspan x="695.302px " y="189.313px ">O</tspan>IN</text>
                </g>
                <g transform="matrix(3.25519,0.590603,-0.590603,3.25519,-1629.88,-950.469)">
                    <text x="688.75px" y="189.313px" style="font-family:'CoconPro-Bold', 'CoconPro';font-weight:700;font-size:12px;fill:white;">BACK F<tspan x="729.91px 737.11px " y="189.313px 189.313px ">AT</tspan></text>
                </g>
                <g transform="matrix(2.26124,-1.93508,1.93508,2.26124,-1371.05,1245.88)">
                    <text x="688.75px" y="189.313px" style="font-family:'CoconPro-Bold', 'CoconPro';font-weight:700;font-size:12px;fill:white;">BACON</text>
                </g>
                <g transform="matrix(0.442202,-2.94317,2.94317,0.442202,-621.017,2252.57)">
                    <text x="688.75px" y="189.313px" style="font-family:'CoconPro-Bold', 'CoconPro';font-weight:700;font-size:12px;fill:white;">HEAD</text>
                </g>
                <g transform="matrix(1.986,0.988951,-0.988951,1.986,-1041.47,-827.633)">
                    <text x="688.75px" y="189.313px" style="font-family:'CoconPro-Bold', 'CoconPro';font-weight:700;font-size:12px;fill:white;">EAR</text>
                </g>
                <g transform="matrix(2.1039,-1.17212,1.17212,2.1039,-1452.22,782.373)">
                    <text x="688.75px" y="189.313px" style="font-family:'CoconPro-Bold', 'CoconPro';font-weight:700;font-size:12px;fill:white;">JO<tspan x="703.186px " y="189.313px ">W</tspan>L</text>
                </g>
                <g transform="matrix(1.46663,0.324876,-0.324876,1.46663,-802.449,-173.416)">
                    <text x="688.75px" y="189.313px" style="font-family:'CoconPro-Bold', 'CoconPro';font-weight:700;font-size:12px;fill:white;">SNOUT</text>
                </g>
                <g transform="matrix(1.68576,0.951293,-0.951293,1.68576,-296.295,-639.259)">
                    <text x="688.75px" y="189.313px" style="font-family:'CoconPro-Bold', 'CoconPro';font-weight:700;font-size:12px;fill:white;">HOCK</text>
                </g>
                <g transform="matrix(1.9408,-1.57625,1.57625,1.9408,-1263.49,918.846)">
                    <text x="688.75px" y="189.313px" style="font-family:'CoconPro-Bold', 'CoconPro';font-weight:700;font-size:12px;fill:white;">BOST<tspan x="720.238px " y="189.313px ">O</tspan>N</text>
                    <text x="698.956px" y="201.313px" style="font-family:'CoconPro-Bold', 'CoconPro';font-weight:700;font-size:12px;fill:white;">BUT<tspan x="723.328px " y="201.313px ">T</tspan></text>
                </g>
                <g transform="matrix(0.375181,2.10652,-2.10652,0.375181,533.468,-1265.51)">
                    <text x="693.664px" y="189.313px" style="font-family:'CoconPro-Bold', 'CoconPro';font-weight:700;font-size:12px;fill:white;">PICNIC</text>
                    <text x="700.528px" y="201.313px" style="font-family:'CoconPro-Bold', 'CoconPro';font-weight:700;font-size:12px;fill:white;">HAM</text>
                </g>
                <g transform="matrix(1.63874,-0.593314,0.593314,1.63874,-875.981,209.478)">
                    <text x="688.75px" y="189.313px" style="font-family:'CoconPro-Bold', 'CoconPro';font-weight:700;font-size:12px;fill:white;">CLEAR PL<tspan x="743.278px 750.478px 757.57px " y="189.313px 189.313px 189.313px ">ATE</tspan></text>
                </g>
                <g transform="matrix(1.89646,0.295795,-0.295795,1.89646,-810.328,-299.448)">
                    <text x="688.75px" y="189.313px" style="font-family:'CoconPro-Bold', 'CoconPro';font-weight:700;font-size:12px;fill:white;">SP<tspan x="703.186px " y="189.313px ">A</tspan>RE RIBS</text>
                </g>
            </g>
        </g>
    </g>
</svg>
