<?xml version="1.0" encoding="UTF-8" standalone="no"?>
<!DOCTYPE svg PUBLIC "-//W3C//DTD SVG 1.1//EN" "http://www.w3.org/Graphics/SVG/1.1/DTD/svg11.dtd">
<svg width="100%" height="100%" viewBox="0 0 100 20" version="1.1" xmlns="http://www.w3.org/2000/svg" xmlns:xlink="http://www.w3.org/1999/xlink" xml:space="preserve" xmlns:serif="http://www.serif.com/" style="fill-rule:evenodd;clip-rule:evenodd;stroke-linejoin:round;stroke-miterlimit:1.41421;">
    <g>
        <g transform="matrix(1,0,0,1,-1.60296,-0.104585)">
            <path d="M89.462,5.085C90.675,5.142 92.276,5.962 92.276,5.962C92.346,5.903 92.417,5.846 92.489,5.79C93.364,5.122 94.716,4.881 94.716,4.881C96.777,4.905 98.527,7.05 97.524,9.099L98.286,9.446C99.41,10.202 99.217,9.954 98.975,11.443C98.51,14.314 96.304,17.324 93.515,17.157C92.157,17.075 90.769,15.358 90.769,15.358C90.494,15.865 91.028,17.415 88.159,17.221C86.941,17.138 85.915,16.334 85.401,15.017C85.401,15.017 81.46,18.231 78.824,16.245C78.824,16.245 78.074,17.36 76.599,16.916C72.97,15.868 66.958,19.217 67.999,14.077C68.306,12.565 69.456,11.231 70.488,9.91C70.488,9.91 68.331,7.393 69.883,5.7C71.824,3.583 78.21,3.809 79.585,5.993C81.585,4.238 84.942,4.313 86.437,6.523C86.437,6.523 87.624,5.032 89.462,5.085ZM71.573,13.549C71.125,14.257 71.705,13.345 71.573,13.549ZM81.275,8.534C80.175,9.781 79.706,13.118 80.24,11.078C80.545,9.966 81.372,8.426 81.275,8.534ZM94.77,7.888C93.225,8.545 93.953,9.39 93.845,10.055C94.231,9.062 94.858,7.853 94.77,7.888ZM76.029,7.895C76.029,7.895 75.543,8.649 74.771,9.49C77.118,7.33 76.376,7.895 76.376,7.895C76.26,7.895 76.144,7.895 76.029,7.895ZM89.11,8.09C88.37,8.161 88.314,9.735 88.967,8.398C88.967,8.398 89.17,8.085 89.11,8.09Z" style="fill:white;fill-rule:nonzero;"/>
        </g>
        <g transform="matrix(1,0,0,1,0.407612,-0.0122187)">
            <path d="M22.471,1.176C24.495,1.268 26.741,2.289 25.544,4.37C25.266,4.875 24.178,5.642 25.75,5.23C27.112,4.874 28.845,5.788 29.255,5.587C30.618,4.967 32.296,5.209 33.571,5.968C34.449,5.366 34.59,5.509 35.037,5.461C36.421,5.313 38.158,6.275 38.53,6.041C39.915,5.204 41.731,5.337 43.037,6.329C45.266,4.426 49.999,6.016 48.318,9.447L49.079,9.791C49.391,10 50.836,8.961 49.497,12.859C48.265,16.45 43.476,19.414 41.579,15.716C41.579,15.716 42.117,15.238 40.843,16.857C39.926,18.024 37.694,17.731 36.784,16.253C36.784,16.253 34.257,18.998 32.246,16.428C32.246,16.428 29.269,18.439 27.324,16.547C27.324,16.547 23.523,17.76 21.979,15.18C22.042,16.396 22.655,15.85 22.565,17.14C22.396,19.566 17.087,18.926 16.667,14.7C16.232,9.693 15.499,20.285 9.155,19.487C7.575,19.288 5.899,17.757 6.622,16.272C7.012,15.47 8.468,15.515 8.468,15.515C9.748,14.649 10.475,12.977 11.197,11.429C11.197,11.429 10.527,8.869 12.527,7.839C12.924,6.394 13.367,4.548 12.681,4.729C9.124,5.739 6.655,9.927 7.477,13.549C7.477,13.549 7.558,16.4 4.071,15.121C2.131,14.41 0.666,12.425 0.601,10.375C0.601,10.375 1.138,7.323 2.612,5.627C5.031,2.843 8.671,1.247 12.377,0.926C12.93,0.878 17.672,0.957 18.408,4.972C18.408,4.972 18.84,1.074 22.471,1.176ZM19.358,11.853C19.185,11.993 18.987,13.601 19.431,11.864C19.431,11.864 19.593,11.616 19.358,11.853ZM25.436,8.873C24.355,10.11 23.878,13.411 24.439,11.35C24.753,10.244 25.551,8.745 25.436,8.873ZM5.954,6.552C4.371,7.868 2.736,10.082 4.323,11.756C4.394,9.947 5.028,8.154 5.979,6.56C5.979,6.56 6.092,6.44 5.954,6.552ZM30.688,8.274C30.019,8.365 30.864,8.761 29.809,9.432C29.767,12.704 29.843,10.118 30.653,8.383C30.653,8.383 30.739,8.268 30.688,8.274ZM45.556,8.241C44.702,8.59 44.504,9.492 44.504,9.492C44.784,10.129 44.419,10.93 44.904,9.739C45.085,9.303 45.274,8.872 45.473,8.444C45.512,8.361 45.588,8.229 45.556,8.241ZM39.521,9.08C39.174,9.45 39.049,10.098 39.546,9.055C39.537,9.064 39.529,9.072 39.521,9.08ZM35.402,8.44C34.784,8.5 35,9.28 35,9.28C35.178,8.901 35.461,8.436 35.402,8.44ZM22.256,4.173C20.819,4.225 20.923,6.719 20.254,9.21C20.254,9.21 21.195,6.573 22.229,4.308C22.229,4.308 22.34,4.172 22.256,4.173Z" style="fill:white;fill-rule:nonzero;"/>
        </g>
        <g transform="matrix(0.98701,0.156168,-0.156168,0.98701,7.32429,-8.22386)">
            <g transform="matrix(0.0750467,-2.04316e-18,2.04316e-18,0.0750467,63.3653,13.1126)">
                <path d="M0,-82.95L8.017,-97.434C12.551,-105.594 13.381,-115.338 10.302,-124.146C7.24,-132.945 0.539,-140.041 -8.071,-143.608L-45.541,-159.172C-54.114,-162.731 -63.83,-162.489 -72.186,-158.513C-73.204,-158.03 -74.193,-157.495 -75.151,-156.911C-92.711,-164.891 -111.591,-169.07 -130.347,-169.07C-149.116,-169.07 -167.995,-164.889 -185.541,-156.907C-186.495,-157.49 -187.481,-158.024 -188.495,-158.507C-196.871,-162.492 -206.588,-162.732 -215.14,-159.172L-252.61,-143.613C-261.233,-140.041 -267.934,-132.945 -270.989,-124.167C-274.078,-115.33 -273.245,-105.585 -268.726,-97.473L-260.697,-82.955C-260.382,-82.384 -260.056,-81.818 -259.719,-81.258C-267.082,-64.391 -270.942,-46.614 -270.942,-29.326C-270.942,5.557 -255.993,35.272 -227.714,56.602C-202.483,75.637 -167.904,86.12 -130.347,86.12C-92.79,86.12 -58.211,75.637 -32.981,56.603C-4.7,35.272 10.248,5.558 10.248,-29.326C10.248,-46.613 6.388,-64.39 -0.974,-81.256C-0.638,-81.815 -0.313,-82.38 0,-82.95" style="fill:white;fill-rule:nonzero;"/>
            </g>
            <g transform="matrix(0.0736128,0,0,0.0736128,37.2366,-33.1143)">
                <clipPath id="_clip1">
                    <rect x="89.666" y="468.778" width="264.792" height="233.823" clip-rule="nonzero"/>
                </clipPath>
                <g clip-path="url(#_clip1)">
                    <g transform="matrix(1,0,0,1,216.526,598.708)">
                        <path d="M0,7.988C0,4.411 -1.795,1.517 -4.019,1.517C-6.244,1.517 -8.051,4.411 -8.051,7.988C-8.051,11.565 -6.244,14.472 -4.019,14.472C-1.795,14.472 0,11.565 0,7.988M19.123,7.988C19.123,4.411 17.315,1.517 15.091,1.517C12.867,1.517 11.072,4.411 11.072,7.988C11.072,11.565 12.867,14.472 15.091,14.472C17.315,14.472 19.123,11.565 19.123,7.988M30.119,8.86C30.119,15.774 25.822,19.527 3.185,19.527C-13.777,19.527 -19.047,18.061 -19.047,8.86C-19.047,-2.389 -8.026,-11.539 5.536,-11.539C19.098,-11.539 30.119,-2.389 30.119,8.86" style="fill:rgb(233,119,118);fill-rule:nonzero;"/>
                    </g>
                    <g transform="matrix(1,0,0,1,177.825,579.99)">
                        <path d="M0,11.4C0,1.39 -5.258,-6.724 -11.754,-6.724C-18.238,-6.724 -23.496,1.39 -23.496,11.4C-23.496,21.397 -18.238,29.512 -11.754,29.512C-5.258,29.512 0,21.397 0,11.4M75.139,27.578C75.139,12.853 61.274,0.859 44.237,0.859C27.199,0.859 13.334,12.853 13.334,27.578C13.334,44.565 28.501,44.565 41.886,44.565C55.132,44.565 75.139,44.565 75.139,27.578M111.969,11.4C111.969,1.39 106.712,-6.724 100.228,-6.724C93.731,-6.724 88.473,1.39 88.473,11.4C88.473,21.397 93.731,29.512 100.228,29.512C106.712,29.512 111.969,21.397 111.969,11.4M153.476,-31.687C161.565,-15.509 165.824,1.681 165.824,18.339C165.824,74.519 115.824,113.764 44.237,113.764C-27.351,113.764 -77.351,74.519 -77.351,18.339C-77.351,1.693 -73.092,-15.509 -65.003,-31.687C-64.889,-31.611 -64.775,-31.547 -64.661,-31.484C-64.232,-31.206 -63.777,-30.928 -63.334,-30.675C-63.145,-30.562 -62.968,-30.461 -62.778,-30.359C-62.273,-30.081 -61.767,-29.816 -61.261,-29.563L-60.958,-29.411C-60.339,-29.108 -59.719,-28.83 -59.1,-28.565C-58.949,-28.501 -58.797,-28.451 -58.645,-28.388C-58.14,-28.185 -57.647,-27.996 -57.154,-27.819C-56.964,-27.756 -56.787,-27.693 -56.61,-27.629C-56.029,-27.427 -55.447,-27.25 -54.853,-27.086C-54.79,-27.061 -54.727,-27.048 -54.664,-27.023C-54.007,-26.846 -53.349,-26.681 -52.68,-26.53C-52.528,-26.505 -52.364,-26.467 -52.199,-26.441C-51.681,-26.328 -51.163,-26.239 -50.632,-26.151C-50.455,-26.125 -50.278,-26.087 -50.089,-26.062C-49.444,-25.974 -48.799,-25.885 -48.142,-25.822L-48.079,-25.822C-47.409,-25.759 -46.727,-25.721 -46.044,-25.696C-45.867,-25.683 -45.69,-25.683 -45.501,-25.683C-45.235,-25.67 -44.97,-25.658 -44.704,-25.658C-44.477,-25.658 -44.237,-25.67 -44.009,-25.683C-43.782,-25.683 -43.542,-25.683 -43.314,-25.696C-42.796,-25.721 -42.29,-25.746 -41.772,-25.784C-41.582,-25.809 -41.406,-25.809 -41.229,-25.835C-40.533,-25.898 -39.838,-25.974 -39.156,-26.087C-39.029,-26.1 -38.903,-26.125 -38.777,-26.151C-38.22,-26.239 -37.652,-26.34 -37.083,-26.454C-36.855,-26.505 -36.628,-26.555 -36.388,-26.618C-35.933,-26.719 -35.465,-26.833 -35.01,-26.96C-34.77,-27.023 -34.517,-27.086 -34.277,-27.162C-33.809,-27.288 -33.342,-27.44 -32.874,-27.591C-32.659,-27.667 -32.444,-27.73 -32.23,-27.806C-31.547,-28.046 -30.877,-28.299 -30.22,-28.577C-16.14,-34.417 -7.053,-48.029 -7.053,-63.259C-7.053,-66.773 -7.558,-70.286 -8.544,-73.711L-12.412,-87.134C5.233,-97.106 24.747,-102.364 44.237,-102.364C63.726,-102.364 83.241,-97.106 100.885,-87.134L97.017,-73.711C96.032,-70.286 95.526,-66.773 95.526,-63.259C95.526,-48.029 104.613,-34.417 118.693,-28.577C119.351,-28.299 120.02,-28.046 120.703,-27.806C120.918,-27.73 121.133,-27.667 121.348,-27.591C121.803,-27.44 122.27,-27.288 122.75,-27.162C122.991,-27.086 123.243,-27.023 123.484,-26.96C123.939,-26.833 124.394,-26.719 124.861,-26.618C125.089,-26.555 125.329,-26.505 125.569,-26.454C126.112,-26.34 126.656,-26.239 127.199,-26.151C127.338,-26.138 127.49,-26.1 127.629,-26.075C128.312,-25.974 128.994,-25.898 129.677,-25.835C129.891,-25.809 130.119,-25.797 130.334,-25.784C130.802,-25.746 131.269,-25.721 131.737,-25.696C132.015,-25.696 132.28,-25.683 132.546,-25.683C132.761,-25.683 132.975,-25.67 133.178,-25.67C133.418,-25.67 133.658,-25.67 133.898,-25.683C134.126,-25.683 134.34,-25.683 134.568,-25.696C135.213,-25.721 135.857,-25.759 136.489,-25.809C136.615,-25.822 136.755,-25.847 136.881,-25.86C137.424,-25.91 137.955,-25.974 138.486,-26.05C138.739,-26.087 138.979,-26.125 139.219,-26.163C139.661,-26.239 140.091,-26.315 140.521,-26.403C140.761,-26.454 141.001,-26.505 141.229,-26.555C141.848,-26.694 142.467,-26.846 143.074,-27.01C143.264,-27.061 143.428,-27.111 143.618,-27.174C144.073,-27.301 144.54,-27.452 144.995,-27.604C145.248,-27.68 145.488,-27.768 145.741,-27.857C146.145,-28.009 146.55,-28.16 146.954,-28.325C147.182,-28.413 147.409,-28.501 147.637,-28.603C148.218,-28.843 148.812,-29.108 149.381,-29.386C149.558,-29.475 149.735,-29.563 149.912,-29.652C150.341,-29.866 150.771,-30.094 151.201,-30.334C151.416,-30.448 151.643,-30.574 151.858,-30.701C152.275,-30.941 152.68,-31.194 153.084,-31.446C153.211,-31.535 153.35,-31.598 153.476,-31.687" style="fill:rgb(249,199,186);fill-rule:nonzero;"/>
                    </g>
                    <g transform="matrix(1,0,0,1,160.788,524.048)">
                        <path d="M0,-15.318C0.758,-12.689 1.138,-9.997 1.138,-7.317C1.138,4.323 -5.814,14.725 -16.57,19.199C-26.757,23.433 -38.233,21.537 -46.537,14.27C-49.04,12.071 -51.125,9.48 -52.73,6.585L-61.097,-8.556C-62.412,-10.932 -62.652,-13.662 -61.754,-16.241C-60.857,-18.806 -58.986,-20.791 -56.471,-21.827L-17.467,-38.018C-16.304,-38.511 -15.078,-38.751 -13.852,-38.751C-12.487,-38.751 -11.11,-38.435 -9.821,-37.828C-7.369,-36.665 -5.599,-34.593 -4.841,-32.002C-4.815,-31.951 -4.803,-31.9 -4.79,-31.85C-4.778,-31.825 -4.765,-31.799 -4.765,-31.774L0,-15.318Z" style="fill:rgb(249,199,186);fill-rule:nonzero;"/>
                    </g>
                    <g transform="matrix(1,0,0,1,345.09,524.656)">
                        <path d="M0,-16.848C0.897,-14.27 0.657,-11.54 -0.657,-9.163L-0.657,-9.151L-9.037,5.978C-10.629,8.872 -12.715,11.463 -15.217,13.663C-23.509,20.93 -34.998,22.813 -45.185,18.592C-55.94,14.118 -62.892,3.716 -62.892,-7.925C-62.892,-10.604 -62.513,-13.296 -61.754,-15.925L-56.989,-32.394C-56.977,-32.432 -56.964,-32.482 -56.952,-32.52L-56.952,-32.533C-56.939,-32.558 -56.926,-32.584 -56.914,-32.609C-56.155,-35.2 -54.386,-37.273 -51.934,-38.435C-49.495,-39.598 -46.777,-39.661 -44.275,-38.625L-5.283,-22.434C-2.781,-21.398 -0.897,-19.414 0,-16.848" style="fill:rgb(249,199,186);fill-rule:nonzero;"/>
                    </g>
                    <g transform="matrix(1,0,0,1,275.525,588.432)">
                        <ellipse cx="0" cy="-4.424" rx="4.424" ry="4.424" style="fill:white;"/>
                    </g>
                    <g transform="matrix(1,0,0,1,271.101,598.759)">
                        <path d="M0,-14.75C0,-12.298 1.972,-10.326 4.424,-10.326C6.863,-10.326 8.847,-12.298 8.847,-14.75C8.847,-17.189 6.863,-19.174 4.424,-19.174C1.972,-19.174 0,-17.189 0,-14.75M-4.803,-7.369C-4.803,-17.379 0.455,-25.493 6.951,-25.493C13.435,-25.493 18.693,-17.379 18.693,-7.369C18.693,2.629 13.435,10.743 6.951,10.743C0.455,10.743 -4.803,2.629 -4.803,-7.369" style="fill:rgb(120,41,31);fill-rule:nonzero;"/>
                    </g>
                    <g transform="matrix(1,0,0,1,219.711,587.169)">
                        <path d="M0,31.066C22.637,31.066 26.934,27.312 26.934,20.399C26.934,9.15 15.913,-0.001 2.351,-0.001C-11.211,-0.001 -22.232,9.15 -22.232,20.399C-22.232,29.6 -16.962,31.066 0,31.066M2.351,-6.32C19.388,-6.32 33.253,5.674 33.253,20.399C33.253,37.386 13.246,37.386 0,37.386C-13.385,37.386 -28.552,37.386 -28.552,20.399C-28.552,5.674 -14.687,-6.32 2.351,-6.32" style="fill:rgb(120,41,31);fill-rule:nonzero;"/>
                    </g>
                    <g transform="matrix(1,0,0,1,231.617,613.179)">
                        <ellipse cx="0.006" cy="-6.478" rx="4.026" ry="6.478" style="fill:rgb(120,41,31);"/>
                    </g>
                    <g transform="matrix(1,0,0,1,212.507,613.179)">
                        <ellipse cx="-0.006" cy="-6.478" rx="4.026" ry="6.478" style="fill:rgb(120,41,31);"/>
                    </g>
                    <g transform="matrix(1,0,0,1,163.543,588.432)">
                        <ellipse cx="0" cy="-4.424" rx="4.424" ry="4.424" style="fill:white;"/>
                    </g>
                    <g transform="matrix(1,0,0,1,163.543,603.182)">
                        <path d="M0,-23.597C-2.439,-23.597 -4.424,-21.613 -4.424,-19.173C-4.424,-16.721 -2.439,-14.75 0,-14.75C2.439,-14.75 4.424,-16.721 4.424,-19.173C4.424,-21.613 2.439,-23.597 0,-23.597M-9.214,-11.792C-9.214,-21.802 -3.956,-29.917 2.528,-29.917C9.024,-29.917 14.282,-21.802 14.282,-11.792C14.282,-1.795 9.024,6.32 2.528,6.32C-3.956,6.32 -9.214,-1.795 -9.214,-11.792" style="fill:rgb(120,41,31);fill-rule:nonzero;"/>
                    </g>
                    <g transform="matrix(1,0,0,1,161.925,654.648)">
                        <path d="M0,-137.917C0,-140.596 -0.379,-143.289 -1.138,-145.918L-5.902,-162.374C-5.902,-162.399 -5.915,-162.424 -5.928,-162.449C-5.94,-162.5 -5.953,-162.55 -5.978,-162.601C-6.737,-165.192 -8.506,-167.265 -10.958,-168.428C-12.247,-169.034 -13.625,-169.35 -14.99,-169.35C-16.216,-169.35 -17.442,-169.11 -18.605,-168.617L-57.609,-152.427C-60.124,-151.39 -61.995,-149.406 -62.892,-146.84C-63.789,-144.262 -63.549,-141.532 -62.235,-139.156L-53.868,-124.014C-52.262,-121.12 -50.177,-118.529 -47.674,-116.33C-39.371,-109.062 -27.894,-107.166 -17.707,-111.4C-6.951,-115.874 0,-126.276 0,-137.917M182.508,-139.156C183.822,-141.532 184.062,-144.262 183.165,-146.84C182.268,-149.406 180.384,-151.39 177.882,-152.427L138.891,-168.617C136.388,-169.654 133.671,-169.59 131.231,-168.428C128.779,-167.265 127.01,-165.192 126.251,-162.601C126.239,-162.576 126.226,-162.55 126.214,-162.525L126.214,-162.513C126.201,-162.475 126.188,-162.424 126.176,-162.386L121.411,-145.918C120.652,-143.289 120.273,-140.596 120.273,-137.917C120.273,-126.276 127.225,-115.874 137.98,-111.4C148.168,-107.179 159.656,-109.062 167.948,-116.33C170.45,-118.529 172.536,-121.12 174.128,-124.014L182.508,-139.143L182.508,-139.156ZM191.507,-149.76C193.226,-144.843 192.771,-139.408 190.243,-134.858L181.876,-119.742C180.359,-116.974 178.489,-114.446 176.327,-112.159C185.655,-94.211 190.572,-74.987 190.572,-56.319C190.572,-25.189 177.199,1.353 151.896,20.438C128.375,38.183 95.779,47.953 60.137,47.953C24.494,47.953 -8.102,38.183 -31.623,20.438C-56.926,1.353 -70.298,-25.189 -70.298,-56.319C-70.298,-74.987 -65.382,-94.211 -56.054,-112.159C-58.215,-114.446 -60.086,-116.987 -61.603,-119.742L-69.97,-134.871C-72.498,-139.408 -72.953,-144.843 -71.234,-149.76C-69.527,-154.664 -65.786,-158.607 -60.996,-160.591L-22.005,-176.782C-17.24,-178.766 -11.83,-178.64 -7.154,-176.416C-4.158,-174.987 -1.643,-172.775 0.177,-170.058C18.87,-180.409 39.497,-185.87 60.137,-185.87C80.764,-185.87 101.39,-180.409 120.096,-170.071C121.904,-172.763 124.419,-174.987 127.427,-176.416C132.103,-178.64 137.513,-178.766 142.29,-176.782L181.269,-160.591C186.059,-158.607 189.801,-154.664 191.507,-149.76M150.468,-100.354C150.24,-100.341 150.026,-100.341 149.798,-100.341C149.558,-100.328 149.318,-100.328 149.078,-100.328C148.875,-100.328 148.66,-100.341 148.446,-100.341C148.18,-100.341 147.915,-100.354 147.637,-100.354C147.169,-100.379 146.701,-100.404 146.234,-100.442C146.019,-100.455 145.791,-100.467 145.577,-100.493C144.894,-100.556 144.212,-100.632 143.529,-100.733C143.39,-100.758 143.238,-100.796 143.099,-100.809C142.556,-100.897 142.012,-100.998 141.469,-101.112C141.229,-101.163 140.989,-101.213 140.761,-101.276C140.293,-101.377 139.838,-101.491 139.383,-101.618C139.143,-101.681 138.891,-101.744 138.65,-101.82C138.17,-101.946 137.702,-102.098 137.247,-102.25C137.033,-102.325 136.818,-102.389 136.603,-102.464C135.92,-102.705 135.25,-102.957 134.593,-103.235C120.513,-109.075 111.426,-122.687 111.426,-137.917C111.426,-141.431 111.931,-144.944 112.917,-148.369L116.785,-161.792C99.141,-171.764 79.626,-177.022 60.137,-177.022C40.647,-177.022 21.132,-171.764 3.488,-161.792L7.356,-148.369C8.342,-144.944 8.847,-141.431 8.847,-137.917C8.847,-122.687 -0.24,-109.075 -14.32,-103.235C-14.977,-102.957 -15.647,-102.705 -16.33,-102.464C-16.545,-102.389 -16.759,-102.325 -16.974,-102.25C-17.442,-102.098 -17.91,-101.946 -18.377,-101.82C-18.617,-101.744 -18.87,-101.681 -19.11,-101.618C-19.565,-101.491 -20.033,-101.377 -20.488,-101.276C-20.728,-101.213 -20.956,-101.163 -21.183,-101.112C-21.752,-100.998 -22.321,-100.897 -22.877,-100.809C-23.003,-100.783 -23.129,-100.758 -23.256,-100.746C-23.938,-100.632 -24.634,-100.556 -25.329,-100.493C-25.506,-100.467 -25.683,-100.467 -25.872,-100.442C-26.39,-100.404 -26.896,-100.379 -27.414,-100.354C-27.642,-100.341 -27.882,-100.341 -28.109,-100.341C-28.337,-100.328 -28.577,-100.316 -28.804,-100.316C-29.07,-100.316 -29.335,-100.328 -29.601,-100.341C-29.79,-100.341 -29.967,-100.341 -30.144,-100.354C-30.827,-100.379 -31.509,-100.417 -32.179,-100.48L-32.242,-100.48C-32.899,-100.543 -33.544,-100.632 -34.189,-100.72C-34.378,-100.746 -34.555,-100.783 -34.732,-100.809C-35.263,-100.897 -35.781,-100.986 -36.299,-101.099C-36.464,-101.125 -36.628,-101.163 -36.78,-101.188C-37.449,-101.34 -38.107,-101.504 -38.764,-101.681C-38.827,-101.706 -38.89,-101.719 -38.954,-101.744C-39.548,-101.908 -40.129,-102.085 -40.71,-102.288C-40.887,-102.351 -41.064,-102.414 -41.254,-102.477C-41.747,-102.654 -42.24,-102.844 -42.745,-103.046C-42.897,-103.109 -43.049,-103.16 -43.2,-103.223C-43.82,-103.488 -44.439,-103.766 -45.058,-104.07L-45.362,-104.221C-45.867,-104.474 -46.373,-104.739 -46.878,-105.018C-47.068,-105.119 -47.245,-105.22 -47.434,-105.334C-47.877,-105.586 -48.332,-105.864 -48.761,-106.142C-48.875,-106.206 -48.989,-106.269 -49.103,-106.345C-57.192,-90.167 -61.451,-72.965 -61.451,-56.319C-61.451,-0.139 -11.451,39.106 60.137,39.106C131.724,39.106 181.724,-0.139 181.724,-56.319C181.724,-72.978 177.465,-90.167 169.376,-106.345C169.25,-106.256 169.11,-106.193 168.984,-106.105C168.58,-105.852 168.175,-105.599 167.758,-105.359C167.543,-105.232 167.316,-105.106 167.101,-104.992C166.671,-104.752 166.241,-104.525 165.812,-104.31C165.635,-104.221 165.458,-104.133 165.281,-104.044C164.712,-103.766 164.118,-103.501 163.537,-103.261C163.309,-103.16 163.082,-103.071 162.854,-102.983C162.45,-102.818 162.045,-102.667 161.641,-102.515C161.388,-102.427 161.148,-102.338 160.895,-102.262C160.44,-102.111 159.972,-101.959 159.517,-101.832C159.328,-101.769 159.164,-101.719 158.974,-101.668C158.367,-101.504 157.748,-101.352 157.129,-101.213C156.901,-101.163 156.661,-101.112 156.421,-101.062C155.991,-100.973 155.561,-100.897 155.119,-100.821C154.879,-100.783 154.639,-100.746 154.386,-100.708C153.855,-100.632 153.324,-100.569 152.781,-100.518C152.654,-100.505 152.515,-100.48 152.389,-100.467C151.757,-100.417 151.112,-100.379 150.468,-100.354" style="fill:rgb(120,41,31);fill-rule:nonzero;"/>
                    </g>
                </g>
            </g>
        </g>
        <g transform="matrix(2.27176,0,0,2.27176,-6.77327,-0.899681)">
            <g transform="matrix(0.440188,-1.22177e-17,1.22177e-17,0.440188,2.27591,0.349992)">
                <g>
                    <g>
                        <path d="M93.658,15.66L93.605,15.66C92.867,15.58 92.365,15.246 92.098,14.66C91.903,14.216 91.805,13.687 91.805,13.074C91.805,12.887 91.83,12.527 91.878,11.994C91.927,11.461 92.089,10.736 92.365,9.821C91.53,10.985 90.543,12.62 89.406,14.727C89.184,15.144 89.024,15.433 88.926,15.593C88.721,15.682 88.521,15.726 88.326,15.726C88.157,15.726 87.946,15.677 87.693,15.58C87.44,15.482 87.242,15.326 87.1,15.113C86.691,14.393 86.486,13.58 86.486,12.674C86.486,12.611 86.493,12.325 86.506,11.814C86.52,11.303 86.655,10.588 86.913,9.668C87.171,8.748 87.428,7.986 87.686,7.382C87.882,6.973 88.21,6.724 88.673,6.635C88.877,6.6 89.086,6.582 89.299,6.582C89.575,6.582 89.912,6.626 90.312,6.715C90.712,6.804 91.076,6.96 91.405,7.182C91.076,7.59 90.648,8.35 90.119,9.461C89.59,10.572 89.21,11.829 88.979,13.234L89.019,13.167C89.677,11.905 90.37,10.736 91.099,9.661C92.405,7.715 93.547,6.626 94.524,6.395L94.751,6.382C95.204,6.382 95.609,6.551 95.964,6.888C96.231,7.146 96.364,7.435 96.364,7.755C96.364,7.933 96.324,8.115 96.244,8.301C95.871,9.057 95.513,9.885 95.171,10.787C94.829,11.689 94.582,12.478 94.431,13.154C94.369,13.429 94.338,13.656 94.338,13.833C94.338,14.127 94.422,14.273 94.591,14.273C95.107,14.273 95.786,13.553 96.631,12.114C97.022,11.456 97.266,11.025 97.364,10.821C97.408,10.75 97.444,10.714 97.47,10.714C97.515,10.714 97.537,10.763 97.537,10.861C97.475,11.59 97.233,12.327 96.811,13.074C96.388,13.82 95.889,14.438 95.311,14.926C94.733,15.415 94.182,15.66 93.658,15.66ZM72.676,7.502C72.516,8.284 72.157,8.675 71.597,8.675C71.428,8.675 71.232,8.599 71.01,8.448C70.788,8.297 70.677,7.973 70.677,7.475C70.677,7.208 70.775,6.962 70.97,6.735C71.166,6.509 71.455,6.395 71.837,6.395L77.635,6.395C78.168,6.493 78.435,6.782 78.435,7.262C78.435,7.617 78.311,7.955 78.062,8.275C76.995,9.466 75.973,10.47 74.996,11.287C74.463,11.758 74.025,12.169 73.683,12.52C73.341,12.871 73.161,13.162 73.143,13.394L73.556,13.247C74.623,12.803 75.485,12.58 76.142,12.58C76.249,12.58 76.449,12.594 76.742,12.62C77.035,12.647 77.293,12.887 77.515,13.34C77.613,13.553 77.662,13.829 77.662,14.167C77.662,14.558 77.595,15.042 77.462,15.62C76.529,15.291 75.569,15.126 74.583,15.126C74.387,15.126 73.938,15.151 73.236,15.2C72.534,15.249 71.823,15.353 71.104,15.513C70.739,15.584 70.499,15.62 70.384,15.62C69.744,15.602 69.424,15.366 69.424,14.913C69.424,14.886 69.435,14.735 69.457,14.46C69.479,14.184 69.733,13.66 70.217,12.887C70.701,12.114 71.263,11.332 71.903,10.541C72.543,9.75 73.121,9.072 73.636,8.508C74.152,7.944 74.467,7.608 74.583,7.502L72.676,7.502ZM81.141,15.473C80.43,15.473 79.87,15.251 79.461,14.806C78.866,14.158 78.568,13.225 78.568,12.007C78.568,11.643 78.615,11.167 78.708,10.581C78.802,9.994 79.03,9.35 79.395,8.648C79.759,7.946 80.23,7.373 80.808,6.928C81.385,6.484 82.056,6.249 82.821,6.222C83.816,6.231 84.558,6.542 85.047,7.155C85.562,7.83 85.82,8.679 85.82,9.701C85.82,10.545 85.647,11.407 85.3,12.287C84.953,13.167 84.425,13.916 83.714,14.533C83.003,15.151 82.145,15.464 81.141,15.473ZM81.901,14.34C82.265,14.34 82.621,14.129 82.967,13.707C83.314,13.285 83.616,12.767 83.874,12.154C84.274,11.185 84.474,10.319 84.474,9.554C84.474,8.719 84.216,8.301 83.7,8.301C83.398,8.301 83.092,8.524 82.781,8.968C82.496,9.377 82.241,9.877 82.014,10.468C81.788,11.059 81.621,11.652 81.514,12.247C81.434,12.674 81.394,13.047 81.394,13.367C81.394,13.491 81.41,13.685 81.441,13.947C81.472,14.209 81.625,14.34 81.901,14.34Z" style="fill:none;stroke:rgb(120,41,31);stroke-width:1.3px;"/>
                        <path d="M93.658,15.66L93.605,15.66C92.867,15.58 92.365,15.246 92.098,14.66C91.903,14.216 91.805,13.687 91.805,13.074C91.805,12.887 91.83,12.527 91.878,11.994C91.927,11.461 92.089,10.736 92.365,9.821C91.53,10.985 90.543,12.62 89.406,14.727C89.184,15.144 89.024,15.433 88.926,15.593C88.721,15.682 88.521,15.726 88.326,15.726C88.157,15.726 87.946,15.677 87.693,15.58C87.44,15.482 87.242,15.326 87.1,15.113C86.691,14.393 86.486,13.58 86.486,12.674C86.486,12.611 86.493,12.325 86.506,11.814C86.52,11.303 86.655,10.588 86.913,9.668C87.171,8.748 87.428,7.986 87.686,7.382C87.882,6.973 88.21,6.724 88.673,6.635C88.877,6.6 89.086,6.582 89.299,6.582C89.575,6.582 89.912,6.626 90.312,6.715C90.712,6.804 91.076,6.96 91.405,7.182C91.076,7.59 90.648,8.35 90.119,9.461C89.59,10.572 89.21,11.829 88.979,13.234L89.019,13.167C89.677,11.905 90.37,10.736 91.099,9.661C92.405,7.715 93.547,6.626 94.524,6.395L94.751,6.382C95.204,6.382 95.609,6.551 95.964,6.888C96.231,7.146 96.364,7.435 96.364,7.755C96.364,7.933 96.324,8.115 96.244,8.301C95.871,9.057 95.513,9.885 95.171,10.787C94.829,11.689 94.582,12.478 94.431,13.154C94.369,13.429 94.338,13.656 94.338,13.833C94.338,14.127 94.422,14.273 94.591,14.273C95.107,14.273 95.786,13.553 96.631,12.114C97.022,11.456 97.266,11.025 97.364,10.821C97.408,10.75 97.444,10.714 97.47,10.714C97.515,10.714 97.537,10.763 97.537,10.861C97.475,11.59 97.233,12.327 96.811,13.074C96.388,13.82 95.889,14.438 95.311,14.926C94.733,15.415 94.182,15.66 93.658,15.66ZM72.676,7.502C72.516,8.284 72.157,8.675 71.597,8.675C71.428,8.675 71.232,8.599 71.01,8.448C70.788,8.297 70.677,7.973 70.677,7.475C70.677,7.208 70.775,6.962 70.97,6.735C71.166,6.509 71.455,6.395 71.837,6.395L77.635,6.395C78.168,6.493 78.435,6.782 78.435,7.262C78.435,7.617 78.311,7.955 78.062,8.275C76.995,9.466 75.973,10.47 74.996,11.287C74.463,11.758 74.025,12.169 73.683,12.52C73.341,12.871 73.161,13.162 73.143,13.394L73.556,13.247C74.623,12.803 75.485,12.58 76.142,12.58C76.249,12.58 76.449,12.594 76.742,12.62C77.035,12.647 77.293,12.887 77.515,13.34C77.613,13.553 77.662,13.829 77.662,14.167C77.662,14.558 77.595,15.042 77.462,15.62C76.529,15.291 75.569,15.126 74.583,15.126C74.387,15.126 73.938,15.151 73.236,15.2C72.534,15.249 71.823,15.353 71.104,15.513C70.739,15.584 70.499,15.62 70.384,15.62C69.744,15.602 69.424,15.366 69.424,14.913C69.424,14.886 69.435,14.735 69.457,14.46C69.479,14.184 69.733,13.66 70.217,12.887C70.701,12.114 71.263,11.332 71.903,10.541C72.543,9.75 73.121,9.072 73.636,8.508C74.152,7.944 74.467,7.608 74.583,7.502L72.676,7.502ZM81.141,15.473C80.43,15.473 79.87,15.251 79.461,14.806C78.866,14.158 78.568,13.225 78.568,12.007C78.568,11.643 78.615,11.167 78.708,10.581C78.802,9.994 79.03,9.35 79.395,8.648C79.759,7.946 80.23,7.373 80.808,6.928C81.385,6.484 82.056,6.249 82.821,6.222C83.816,6.231 84.558,6.542 85.047,7.155C85.562,7.83 85.82,8.679 85.82,9.701C85.82,10.545 85.647,11.407 85.3,12.287C84.953,13.167 84.425,13.916 83.714,14.533C83.003,15.151 82.145,15.464 81.141,15.473ZM81.901,14.34C82.265,14.34 82.621,14.129 82.967,13.707C83.314,13.285 83.616,12.767 83.874,12.154C84.274,11.185 84.474,10.319 84.474,9.554C84.474,8.719 84.216,8.301 83.7,8.301C83.398,8.301 83.092,8.524 82.781,8.968C82.496,9.377 82.241,9.877 82.014,10.468C81.788,11.059 81.621,11.652 81.514,12.247C81.434,12.674 81.394,13.047 81.394,13.367C81.394,13.491 81.41,13.685 81.441,13.947C81.472,14.209 81.625,14.34 81.901,14.34Z" style="fill:rgb(249,199,186);fill-rule:nonzero;"/>
                    </g>
                </g>
            </g>
            <g transform="matrix(0.440188,0,0,0.440188,3.16094,0.39065)">
                <path d="M9.701,18.02C9.204,18.02 8.782,17.905 8.436,17.674C8.188,17.506 8.033,17.257 7.97,16.929C8.13,17.026 8.303,17.075 8.49,17.075C8.853,17.075 9.31,16.82 9.861,16.31C10.411,15.8 11.012,14.965 11.664,13.807C12.317,12.649 12.891,11.4 13.388,10.06C13.015,10.167 12.687,10.327 12.403,10.54C12.403,10.087 12.525,9.736 12.769,9.488C13.013,9.239 13.339,9.08 13.747,9.009C14.094,7.908 14.315,6.897 14.413,5.974C14.449,5.69 14.466,5.424 14.466,5.175C14.466,3.817 14.014,3.139 13.109,3.139L12.842,3.152C11.334,3.445 10,4.17 8.842,5.328C7.684,6.486 6.839,7.837 6.307,9.381C5.978,10.322 5.814,11.249 5.814,12.163C5.814,12.74 5.881,13.313 6.014,13.881L5.628,13.894C4.98,13.894 4.388,13.703 3.851,13.322C3.314,12.94 2.888,12.456 2.573,11.871C2.258,11.285 2.1,10.761 2.1,10.3L2.1,10.26C2.154,9.062 2.67,7.882 3.651,6.719C4.632,5.557 5.927,4.576 7.538,3.777C9.148,2.979 10.926,2.517 12.869,2.393L13.135,2.393C14.431,2.393 15.389,2.708 16.01,3.338C16.676,4.004 17.009,4.962 17.009,6.213C17.009,7.216 16.84,8.299 16.503,9.461C17.239,9.79 17.856,10.216 18.353,10.739C18.415,10.384 18.477,10.091 18.539,9.861C18.886,8.45 19.258,7.158 19.658,5.987C20.057,4.816 20.363,3.986 20.576,3.498C20.771,3.09 21.117,2.837 21.614,2.739C21.845,2.695 22.076,2.673 22.306,2.673C22.59,2.673 22.939,2.717 23.351,2.806C23.764,2.895 24.135,3.05 24.463,3.272C24.206,3.627 23.775,4.494 23.172,5.874C22.568,7.254 21.991,8.758 21.441,10.386C20.891,12.015 20.567,13.379 20.47,14.48L20.47,14.786C20.47,15.993 20.669,16.742 21.069,17.035C20.776,17.097 20.505,17.128 20.257,17.128C19.68,17.128 19.203,16.907 18.826,16.463C18.449,16.019 18.224,15.358 18.153,14.48C17.852,12.696 17.168,11.418 16.104,10.646C15.944,11.09 15.771,11.52 15.584,11.937C15.363,12.434 15.041,13.042 14.619,13.761C14.198,14.48 13.701,15.185 13.129,15.877C12.556,16.569 11.942,17.12 11.285,17.528C10.77,17.856 10.242,18.02 9.701,18.02ZM29.601,15.997L29.548,15.997C28.474,15.882 27.879,15.19 27.764,13.921C27.418,14.462 27.032,14.879 26.606,15.172C26.18,15.465 25.763,15.611 25.355,15.611C24.636,15.611 24.072,15.389 23.664,14.945C23.061,14.307 22.759,13.384 22.759,12.177C22.759,11.831 22.808,11.371 22.905,10.799C23.003,10.227 23.234,9.599 23.598,8.916C23.962,8.232 24.432,7.671 25.009,7.232C25.585,6.792 26.251,6.573 27.005,6.573C28.168,6.573 28.833,7.105 29.002,8.17L29.268,7.571C29.463,7.172 29.792,6.923 30.253,6.826C30.475,6.781 30.701,6.759 30.932,6.759C31.181,6.759 31.496,6.801 31.877,6.886C32.259,6.97 32.614,7.123 32.942,7.345C32.676,7.709 32.365,8.268 32.01,9.022C31.655,9.776 31.323,10.575 31.012,11.418C30.701,12.261 30.484,12.989 30.36,13.601C30.315,13.841 30.293,14.036 30.293,14.187C30.293,14.471 30.373,14.613 30.533,14.613C31.047,14.613 31.726,13.894 32.569,12.456C32.656,12.311 32.735,12.177 32.806,12.055C32.834,11.553 32.968,10.872 33.208,10.014C33.466,9.095 33.723,8.334 33.98,7.731C34.176,7.323 34.504,7.074 34.965,6.985C35.169,6.95 35.378,6.932 35.591,6.932C35.866,6.932 36.203,6.977 36.603,7.065C37.002,7.154 37.366,7.309 37.694,7.531C37.366,7.939 36.938,8.698 36.41,9.807C35.882,10.917 35.502,12.172 35.271,13.574L35.418,13.255C35.702,12.589 36.066,11.815 36.509,10.932C36.953,10.049 37.466,9.237 38.047,8.496C38.628,7.755 39.26,7.261 39.944,7.012C40.148,6.941 40.356,6.906 40.569,6.906C41.075,6.906 41.599,7.114 42.14,7.531C41.803,7.939 41.372,8.698 40.849,9.807C40.325,10.917 39.953,12.172 39.731,13.574L39.771,13.508C39.877,13.295 40.119,12.858 40.496,12.197C40.873,11.536 41.332,10.804 41.874,10C42.415,9.197 42.985,8.487 43.584,7.871C44.183,7.254 44.762,6.879 45.321,6.746L45.534,6.733C45.987,6.733 46.391,6.901 46.746,7.238C47.012,7.505 47.145,7.797 47.145,8.117C47.145,8.285 47.109,8.463 47.038,8.649C46.666,9.404 46.309,10.231 45.967,11.132C45.625,12.033 45.379,12.82 45.228,13.495C45.166,13.77 45.135,13.996 45.135,14.173C45.135,14.466 45.219,14.613 45.388,14.613C45.654,14.613 45.96,14.422 46.306,14.04C46.786,13.49 47.362,12.607 48.037,11.391C48.134,11.17 48.21,11.059 48.263,11.059C48.307,11.059 48.33,11.107 48.33,11.205C48.268,11.933 48.026,12.669 47.604,13.415C47.183,14.16 46.683,14.777 46.107,15.265C45.53,15.753 44.98,15.997 44.456,15.997L44.403,15.997C43.666,15.917 43.165,15.584 42.899,14.999C42.703,14.555 42.606,14.027 42.606,13.415C42.606,13.228 42.63,12.869 42.679,12.336C42.728,11.804 42.89,11.081 43.165,10.167C42.233,11.454 41.222,13.109 40.13,15.132C39.917,15.513 39.762,15.78 39.664,15.93C39.46,16.019 39.269,16.064 39.092,16.064C38.941,16.064 38.759,16.015 38.546,15.917C38.333,15.82 38.169,15.664 38.053,15.451C37.761,14.937 37.614,14.373 37.614,13.761C37.614,13.033 37.747,12.132 38.014,11.059C38.049,10.917 38.08,10.77 38.107,10.619C37.352,11.764 36.567,13.188 35.751,14.892C35.511,15.398 35.334,15.744 35.218,15.93C35.014,16.019 34.81,16.064 34.606,16.064C34.446,16.064 34.238,16.015 33.98,15.917C33.723,15.82 33.528,15.664 33.395,15.451C33.036,14.819 32.835,14.115 32.791,13.339C32.777,13.364 32.763,13.389 32.749,13.415C32.328,14.16 31.828,14.777 31.252,15.265C30.675,15.753 30.125,15.997 29.601,15.997ZM26.074,14.613C26.375,14.586 26.697,14.273 27.039,13.674C27.38,13.075 27.675,12.376 27.924,11.578C28.181,10.726 28.31,9.994 28.31,9.381C28.31,8.867 28.15,8.601 27.831,8.583C27.538,8.627 27.252,8.851 26.972,9.255C26.692,9.659 26.44,10.158 26.213,10.752C25.987,11.347 25.816,11.937 25.701,12.523C25.621,12.949 25.581,13.326 25.581,13.654C25.581,13.779 25.594,13.969 25.621,14.227C25.648,14.484 25.798,14.613 26.074,14.613Z" style="fill:none;stroke:rgb(120,41,31);stroke-width:1.3px;"/>
                <path d="M9.701,18.02C9.204,18.02 8.782,17.905 8.436,17.674C8.188,17.506 8.033,17.257 7.97,16.929C8.13,17.026 8.303,17.075 8.49,17.075C8.853,17.075 9.31,16.82 9.861,16.31C10.411,15.8 11.012,14.965 11.664,13.807C12.317,12.649 12.891,11.4 13.388,10.06C13.015,10.167 12.687,10.327 12.403,10.54C12.403,10.087 12.525,9.736 12.769,9.488C13.013,9.239 13.339,9.08 13.747,9.009C14.094,7.908 14.315,6.897 14.413,5.974C14.449,5.69 14.466,5.424 14.466,5.175C14.466,3.817 14.014,3.139 13.109,3.139L12.842,3.152C11.334,3.445 10,4.17 8.842,5.328C7.684,6.486 6.839,7.837 6.307,9.381C5.978,10.322 5.814,11.249 5.814,12.163C5.814,12.74 5.881,13.313 6.014,13.881L5.628,13.894C4.98,13.894 4.388,13.703 3.851,13.322C3.314,12.94 2.888,12.456 2.573,11.871C2.258,11.285 2.1,10.761 2.1,10.3L2.1,10.26C2.154,9.062 2.67,7.882 3.651,6.719C4.632,5.557 5.927,4.576 7.538,3.777C9.148,2.979 10.926,2.517 12.869,2.393L13.135,2.393C14.431,2.393 15.389,2.708 16.01,3.338C16.676,4.004 17.009,4.962 17.009,6.213C17.009,7.216 16.84,8.299 16.503,9.461C17.239,9.79 17.856,10.216 18.353,10.739C18.415,10.384 18.477,10.091 18.539,9.861C18.886,8.45 19.258,7.158 19.658,5.987C20.057,4.816 20.363,3.986 20.576,3.498C20.771,3.09 21.117,2.837 21.614,2.739C21.845,2.695 22.076,2.673 22.306,2.673C22.59,2.673 22.939,2.717 23.351,2.806C23.764,2.895 24.135,3.05 24.463,3.272C24.206,3.627 23.775,4.494 23.172,5.874C22.568,7.254 21.991,8.758 21.441,10.386C20.891,12.015 20.567,13.379 20.47,14.48L20.47,14.786C20.47,15.993 20.669,16.742 21.069,17.035C20.776,17.097 20.505,17.128 20.257,17.128C19.68,17.128 19.203,16.907 18.826,16.463C18.449,16.019 18.224,15.358 18.153,14.48C17.852,12.696 17.168,11.418 16.104,10.646C15.944,11.09 15.771,11.52 15.584,11.937C15.363,12.434 15.041,13.042 14.619,13.761C14.198,14.48 13.701,15.185 13.129,15.877C12.556,16.569 11.942,17.12 11.285,17.528C10.77,17.856 10.242,18.02 9.701,18.02ZM29.601,15.997L29.548,15.997C28.474,15.882 27.879,15.19 27.764,13.921C27.418,14.462 27.032,14.879 26.606,15.172C26.18,15.465 25.763,15.611 25.355,15.611C24.636,15.611 24.072,15.389 23.664,14.945C23.061,14.307 22.759,13.384 22.759,12.177C22.759,11.831 22.808,11.371 22.905,10.799C23.003,10.227 23.234,9.599 23.598,8.916C23.962,8.232 24.432,7.671 25.009,7.232C25.585,6.792 26.251,6.573 27.005,6.573C28.168,6.573 28.833,7.105 29.002,8.17L29.268,7.571C29.463,7.172 29.792,6.923 30.253,6.826C30.475,6.781 30.701,6.759 30.932,6.759C31.181,6.759 31.496,6.801 31.877,6.886C32.259,6.97 32.614,7.123 32.942,7.345C32.676,7.709 32.365,8.268 32.01,9.022C31.655,9.776 31.323,10.575 31.012,11.418C30.701,12.261 30.484,12.989 30.36,13.601C30.315,13.841 30.293,14.036 30.293,14.187C30.293,14.471 30.373,14.613 30.533,14.613C31.047,14.613 31.726,13.894 32.569,12.456C32.656,12.311 32.735,12.177 32.806,12.055C32.834,11.553 32.968,10.872 33.208,10.014C33.466,9.095 33.723,8.334 33.98,7.731C34.176,7.323 34.504,7.074 34.965,6.985C35.169,6.95 35.378,6.932 35.591,6.932C35.866,6.932 36.203,6.977 36.603,7.065C37.002,7.154 37.366,7.309 37.694,7.531C37.366,7.939 36.938,8.698 36.41,9.807C35.882,10.917 35.502,12.172 35.271,13.574L35.418,13.255C35.702,12.589 36.066,11.815 36.509,10.932C36.953,10.049 37.466,9.237 38.047,8.496C38.628,7.755 39.26,7.261 39.944,7.012C40.148,6.941 40.356,6.906 40.569,6.906C41.075,6.906 41.599,7.114 42.14,7.531C41.803,7.939 41.372,8.698 40.849,9.807C40.325,10.917 39.953,12.172 39.731,13.574L39.771,13.508C39.877,13.295 40.119,12.858 40.496,12.197C40.873,11.536 41.332,10.804 41.874,10C42.415,9.197 42.985,8.487 43.584,7.871C44.183,7.254 44.762,6.879 45.321,6.746L45.534,6.733C45.987,6.733 46.391,6.901 46.746,7.238C47.012,7.505 47.145,7.797 47.145,8.117C47.145,8.285 47.109,8.463 47.038,8.649C46.666,9.404 46.309,10.231 45.967,11.132C45.625,12.033 45.379,12.82 45.228,13.495C45.166,13.77 45.135,13.996 45.135,14.173C45.135,14.466 45.219,14.613 45.388,14.613C45.654,14.613 45.96,14.422 46.306,14.04C46.786,13.49 47.362,12.607 48.037,11.391C48.134,11.17 48.21,11.059 48.263,11.059C48.307,11.059 48.33,11.107 48.33,11.205C48.268,11.933 48.026,12.669 47.604,13.415C47.183,14.16 46.683,14.777 46.107,15.265C45.53,15.753 44.98,15.997 44.456,15.997L44.403,15.997C43.666,15.917 43.165,15.584 42.899,14.999C42.703,14.555 42.606,14.027 42.606,13.415C42.606,13.228 42.63,12.869 42.679,12.336C42.728,11.804 42.89,11.081 43.165,10.167C42.233,11.454 41.222,13.109 40.13,15.132C39.917,15.513 39.762,15.78 39.664,15.93C39.46,16.019 39.269,16.064 39.092,16.064C38.941,16.064 38.759,16.015 38.546,15.917C38.333,15.82 38.169,15.664 38.053,15.451C37.761,14.937 37.614,14.373 37.614,13.761C37.614,13.033 37.747,12.132 38.014,11.059C38.049,10.917 38.08,10.77 38.107,10.619C37.352,11.764 36.567,13.188 35.751,14.892C35.511,15.398 35.334,15.744 35.218,15.93C35.014,16.019 34.81,16.064 34.606,16.064C34.446,16.064 34.238,16.015 33.98,15.917C33.723,15.82 33.528,15.664 33.395,15.451C33.036,14.819 32.835,14.115 32.791,13.339C32.777,13.364 32.763,13.389 32.749,13.415C32.328,14.16 31.828,14.777 31.252,15.265C30.675,15.753 30.125,15.997 29.601,15.997ZM26.074,14.613C26.375,14.586 26.697,14.273 27.039,13.674C27.38,13.075 27.675,12.376 27.924,11.578C28.181,10.726 28.31,9.994 28.31,9.381C28.31,8.867 28.15,8.601 27.831,8.583C27.538,8.627 27.252,8.851 26.972,9.255C26.692,9.659 26.44,10.158 26.213,10.752C25.987,11.347 25.816,11.937 25.701,12.523C25.621,12.949 25.581,13.326 25.581,13.654C25.581,13.779 25.594,13.969 25.621,14.227C25.648,14.484 25.798,14.613 26.074,14.613Z" style="fill:rgb(249,199,186);fill-rule:nonzero;"/>
            </g>
        </g>
    </g>
</svg>
